/* XPM */
static char *_52c4a1cd40b4721e7e4e9890e0cd457oGJPDGS3ozfueWYr[] = {
/* columns rows colors chars-per-pixel */
"64 64 234 2 ",
"   c black",
".  c black",
"X  c black",
"o  c black",
"O  c black",
"+  c black",
"@  c black",
"#  c black",
"$  c black",
"%  c black",
"&  c black",
"*  c black",
"=  c black",
"-  c black",
";  c black",
":  c black",
">  c black",
",  c black",
"<  c black",
"1  c black",
"2  c black",
"3  c black",
"4  c black",
"5  c black",
"6  c black",
"7  c black",
"8  c black",
"9  c black",
"0  c black",
"q  c black",
"w  c black",
"e  c black",
"r  c black",
"t  c black",
"y  c black",
"u  c black",
"i  c black",
"p  c black",
"a  c black",
"s  c black",
"d  c black",
"f  c black",
"g  c black",
"h  c black",
"j  c black",
"k  c black",
"l  c black",
"z  c black",
"x  c black",
"c  c black",
"v  c black",
"b  c black",
"n  c black",
"m  c black",
"M  c black",
"N  c black",
"B  c black",
"V  c black",
"C  c black",
"Z  c black",
"A  c black",
"S  c black",
"D  c black",
"F  c black",
"G  c black",
"H  c black",
"J  c black",
"K  c black",
"L  c black",
"P  c black",
"I  c black",
"U  c black",
"Y  c black",
"T  c black",
"R  c black",
"E  c black",
"W  c black",
"Q  c black",
"!  c black",
"~  c black",
"^  c black",
"/  c black",
"(  c black",
")  c black",
"_  c black",
"`  c black",
"'  c black",
"]  c black",
"[  c black",
"{  c black",
"}  c black",
"|  c black",
" . c black",
".. c black",
"X. c black",
"o. c black",
"O. c black",
"+. c black",
"@. c black",
"#. c black",
"$. c black",
"%. c black",
"&. c black",
"*. c black",
"=. c black",
"-. c black",
";. c black",
":. c black",
">. c black",
",. c black",
"<. c black",
"1. c black",
"2. c black",
"3. c black",
"4. c black",
"5. c black",
"6. c black",
"7. c black",
"8. c black",
"9. c black",
"0. c black",
"q. c black",
"w. c black",
"e. c black",
"r. c black",
"t. c black",
"y. c black",
"u. c black",
"i. c black",
"p. c black",
"a. c black",
"s. c black",
"d. c black",
"f. c black",
"g. c black",
"h. c black",
"j. c black",
"k. c black",
"l. c black",
"z. c black",
"x. c black",
"c. c black",
"v. c black",
"b. c black",
"n. c black",
"m. c black",
"M. c black",
"N. c black",
"B. c black",
"V. c black",
"C. c black",
"Z. c black",
"A. c black",
"S. c black",
"D. c black",
"F. c black",
"G. c black",
"H. c black",
"J. c black",
"K. c black",
"L. c black",
"P. c black",
"I. c black",
"U. c black",
"Y. c black",
"T. c black",
"R. c black",
"E. c black",
"W. c black",
"Q. c black",
"!. c black",
"~. c black",
"^. c black",
"/. c black",
"(. c black",
"). c black",
"_. c black",
"`. c black",
"'. c black",
"]. c black",
"[. c black",
"{. c black",
"}. c black",
"|. c black",
" X c black",
".X c black",
"XX c black",
"oX c black",
"OX c black",
"+X c black",
"@X c black",
"#X c black",
"$X c black",
"%X c black",
"&X c black",
"*X c black",
"=X c black",
"-X c black",
";X c black",
":X c black",
">X c black",
",X c black",
"<X c black",
"1X c black",
"2X c black",
"3X c black",
"4X c black",
"5X c black",
"6X c black",
"7X c black",
"8X c black",
"9X c black",
"0X c black",
"qX c black",
"wX c black",
"eX c black",
"rX c black",
"tX c black",
"yX c black",
"uX c black",
"iX c black",
"pX c black",
"aX c black",
"sX c black",
"dX c black",
"fX c black",
"gX c black",
"hX c black",
"jX c black",
"kX c black",
"lX c black",
"zX c black",
"xX c black",
"cX c black",
/* pixels */
"kXkXkXkXkXkXkXkXkXkXkXkXkXkXkXkXzXzXyXuXkXkXxXkXpXzXyXyXzXzXtXxXpXzXkXkXzXyXzXpXxXxXxXuXuXuXzXaXkXkXkXkXkXkXkXkXkXkXkXkXkXkXkXkX",
"kXkXkXkXkXkXkXkXkXkXkXkXkXkXkXkXzXzXuXuXkXkXxXkXkXzXuXyXzXkXkXkXpXkXyXzXuXzXuXzXxXxXxXpXuXzXaXaXkXkXkXkXkXkXkXkXkXkXkXkXkXkXkXkX",
"kXkXkXkXkXkXkXkXkXkXkXkXkXkXkXkXzXzXzXzXxXkXkXzXuXzXkXzXtXzXxX}.R 5XuXuXkXaXuXzXzXkXzXzXzXzXzXzXkXkXkXkXkXkXkXkXkXkXkXkXkXkXkXkX",
"kXkXkXkXkXkXkXkXkXkXkXkXkXkXkXkXuXzXzXkXkXzXkXzXuXzXaXkXuXuXU $ X * qXpXxXzXzXuXzXuXzXkXzXkXzXzXkXkXkXkXkXkXkXkXkXkXkXkXkXkXkXkX",
"kXkXkXkXkXkXkXkXkXkXkXkXkXkXkXkXuXzXkXkXzXuXzXuX0XuXkXpXkXOX  @ % O I zXxXzXuXuXuXzXzXkXkXkXzXuXkXkXkXkXkXkXkXkXkXkXkXkXkXkXkXkX",
"kXkXkXkXkXkXkXkXkXkXkXkXkXkXkXzXyXzXkXkXzXzXuXuXuXuXkXkX1X1 * M ) , @ &XpXpXzXzXuXyXkXkXkXkXzXzXkXkXkXkXkXkXkXkXkXkXkXkXkXkXkXkX",
"kXkXkXkXkXkXkXkXkXkXkXkXkXkXkXkXkXkXzXzXuXzXuXzXuXzXeXpX! + 6 Q.[.k + u zXuXrXzXzXzXkXkXzXzXkXkXkXkXkXkXkXkXkXkXkXkXkXkXkXkXkXkX",
"kXkXkXkXkXkXkXkXkXkXkXkXkXkXkXkXkXzXzXzXzXuXuXzXkXkXpX>X$ ; ..J./.%.3 + OXzXkXaXzXzXkXkXzXuXxXxXkXkXkXkXkXkXkXkXkXkXkXkXkXkXkXkX",
"kXkXkXkXkXkXkXkXkXkXkXkXkXkXkXzXkXzXzXuXzXzXuXzXpXxXxXJ : j (.x.t.P.C + w tXpXkXkXzXzXkXqXzXkXxXkXkXkXkXkXkXkXkXkXkXkXkXkXkXkXkX",
"kXkXkXkXkXkXkXkXkXkXkXkXkXkXkXkXaXkXzXuXuXuXzXkXxXpX@X: 5 :.A.i.p.S.v.d @  XkXaXzXzXiXkXzXzXkXkXkXkXkXkXkXkXkXkXkXkXkXkXkXkXkXkX",
"kXkXkXkXkXkXkXkXkXkXkXkXkXkXkXkXpXzXkXuXpXkXzXkXpXpXJ O B I.a.p.i.w.G.' @ r 7XkXxXxXzXzXkXrXkXkXkXkXkXkXkXkXkXkXkXkXkXkXkXkXkXkX",
"kXkXkXkXkXkXkXkXkXkXkXkXkXkXkXkXkXkXkXzXzXuXzXuXxX@X: 5 4.j.i.i.i.s.i.n.f . _ kXpXxXkXaXkXzXkXkXkXkXkXkXkXkXkXkXkXkXkXkXkXkXkXkX",
"kXkXkXkXkXkXkXkXkXkXkXkXkXkXkXkXkXzXaXkXzXuXtXkXxXS & B G.i.w.i.i.a.w.L. .X 5 3XxXiXkXzXkXkXkXtXkXkXkXkXkXkXkXkXkXkXkXkXkXkXkXkX",
"kXkXkXkXkXkXkXkXkXkXkXkXkXkXkXkXkXzXkXkXuXyXkXkX$X: 8 <.l.p.y.y.y.0.i.z.b.j . ` xXpXuXzXkXkXzXyXzXkXkXkXkXkXkXkXkXkXkXkXkXkXkXkX",
"kXkXkXkXkXkXkXkXkXkXkXkXkXkXkXkXzXzXkXkXuXuXzXiXL 5 Z I.j.w.j.r.j.r.a.t.G.| % * 3XxXpXpXkXzXzXzXzXkXkXkXkXkXkXkXkXkXkXkXkXkXkXkX",
"kXkXkXkXkXxXkXkXkXkXkXkXkXzXzXzXzXzXkXuXuXuXcX,Xq 8 %.x.t.a.r.y.y.l.w.d.s.c.0 X ` tXuXkXzXyXyXyXzXzXzXzXzXzXkXkXkXkXkXkXkXkXkXzX",
"zXaXkXkXxXxXxXpXxXxXxXkXkXzXzXyXzXyXaXyXzXzXkXW : m A.i.a.f.r.a.y.e.a.i.w.F./ - q 8XiXkXaXaXzXaXzXzXzXuXuXuXzXzXpXkXxXxXkXkXzXzX",
"zXkXkXkXpXpXpXxXkXkXkXxXzXzXzXaXaXyXyXzXaXaX1Xw 7 ;.F.i.r.a.y.w.i.i.w.a.e.C.v.9 . Y.kXaXaXaXaXaXyXzXzXkXzXzXzXzXpXkXkXaXkXkXzXrX",
"uXuXuXuXkXkXkXzXuXuXzXzXzXxXaXxXzXkXkXiXpXxXY.< c U.g.y.e.i.p.e.i.i.w.p.e.f./.V + y tXxXaXzXkXkXuXuXkXzXkXkXzXzXzXkXkXkXzXuXzXuX",
"zXuXuXuXyXyXyXuXuXuXyXzXxXxXxXxXrXpXkXpXxX8XD 6 } D.u.e.i.e.e.p.e.i.i.e.i.e.S.<.< + *XxXxXkXkXpXuXuXxXkXzXiXyXzXyXaXzXzXzXzXuXuX",
"kXpXuXuXyXyXkXaXaXzXzXzXpX6X>X#XOX.XW E I D 6 f c.z.w.i.p.w.e.i.e.a.j.y.e.e.t.J.b O q T E |.OX@X>X3XpXxXxXaXyXyXzXaXaXiXaXkXxXpX",
"xXpXuXzX9XyXzX7X:X+XQ I D q 3 > > - + + > < a V H.j.e.e.i.e.i.e.e.j.y.a.e.p.a.K.O.> # + O O + + # : q H E oX=X4XaXaXaXkXkXpXpXxX",
"pXpXrX4X#XQ L u = @ O + : 6 d l n B ^ ' @.$.@.n.Z.h.y.e.y.a.a.e.i.e.q.a.w.i.l.h.A.@.X.Z V c a 9 - + + O .     X t L XX<XxXkXxXpX",
"pX5XP X X   X % 8 d b  .%.<.v.W.!.J.P.L.x.k.z.a.g.g.f.y.y.y.y.i.i.e.a.w.a.a.0.j.a.k.l.K.^.).).W.{.:.&.A x 9 & O X % . . G $XpXkX",
"xXJ   % 8 c ' %.c.J.F.S.l.S.F.F.f.t.x.y.a.e.i.w.e.j.l.j.i.e.e.i.e.i.i.e.a.k.e.s.i.e.i.t.f.g.C.C.G.G.G.G.K.J.c.$.Z z , . . o ,XkX",
"pXJ e 5 T.`.P.D.a.a.p.e.e.e.y.t.i.p.i.i.e.e.e.i.y.g.>.{ a.a.e.y.y.a.w.i.>.o.l.0.e.i.e.i.e.i.i.d.i.d.i.i.w.d.a.j.L.!.'.F   o %XuX",
"0X2X  & x ].J.u.e.e.e.i.e.p.p.i.i.d.i.e.i.e.y.y.C.8.+.X.o.z.a.y.q.0.k.6.] X.#.F.y.i.e.e.i.e.y.a.w.i.i.i.a.y.e.y.t.J.'.9 . 4 0X0X",
"0XyX.X@ - C _.C.y.q.e.p.i.e.e.e.a.i.i.i.e.e.y.f.H.$.4./.o.h.z.w.i.k.f.5.>.J.X.Z.f.y.e.e.i.i.i.e.i.i.e.y.y.y.y.r.G.!.l + O 2XqX0X",
"zXyXkXU # < ~ ^.F.r.e.i.i.e.y.y.y.a.i.i.y.y.y.f./.{ 5.S.#.f.q.e.e.e.S.>.#./.X.8.l.y.r.y.e.i.i.i.a.y.f.y.e.y.j.C.^.C + O $XpXtXzX",
"kXaXkXpXS + < O.!.S.d.w.i.a.y.y.y.i.i.i.e.e.e.f.H.V ,.J.~ h.j.i.s.6.L.$.^ _.C 4.f.y.y.e.i.i.i.i.y.u.j.a.e.d.l.U.^ O O OXxXxXkXkX",
"kXkXzXuX8Xg : & O.V.k.d.i.i.e.e.i.d.a.y.e.i.e.y.K.~ v v V Z.h.f.q.y.S.#.s ~ a c.l.e.e.y.y.a.i.e.i.e.i.i.d.z.V.*.# . .XpXuXzXzXzX",
"kXkXuXqXkXeXu % , O.G.d.d.i.e.i.i.i.a.y.e.i.i.y.F.C 2 2 b A.C.y.j.y.g.>.7 > a c.l.i.e.e.y.y.i.i.e.e.p.e.d.L...X   |.pXkXuXyXzXzX",
"kXkXuXuXzXzXiXg X 5 | J.x.w.a.i.e.p.w.e.e.a.0.a.C.^ s p B A.l.y.a.u.j.>.2 3 d M.l.y.e.i.e.e.i.i.i.e.i.d.L.| %   ! pXxXiXkXyXzXtX",
"xXzXzXuXyXiXzXiXS X , | !.S.w.p.w.i.w.a.a.q.i.y.g.( 2 2 ~ H.u.e.y.j.l.>.2 2 f n.S.e.e.i.i.i.e.0.y.a.x.I...@   L pXxXiXkXkXpXzXuX",
"xXxXkXaXkXzXqX0X9XD @ + ^ _.h.w.p.p.w.w.a.y.i.u.C.+.2 s ^ Z.a.e.e.a.a.5.p 2 v A.g.a.i.e.w.e.p.s.d.9._.' @ . K uXkXqXkXkXpXaXkXkX",
"kXtXkXkXzXyX0XqXuXuXW @ : Z J.x.9.w.p.p.y.a.w.a.S.$.p s ( A.a.e.i.e.d.n.f ; V H.g.y.e.i.i.i.w.0.x.(.^ # O J uXuX0XuXzXtXxXkXkXzX",
"uXtXkXkXiXaXuXuXtXpXxX` + + B W.P.x.9.s.w.y.e.i.f.4.v a ,.C.0.p.i.e.i.A.m 2 o.S.f.y.i.p.i.i.y.C.~.V # . U pXkXcXuXuXuXtXzXkXaXxX",
"uXuXrXkXkXzXzXaXkXkXkXtXY.- % z v.(.w.w.i.y.i.e.y.S.#.[ h.l.e.i.p.e.i.l.,.( h.u.e.y.p.i.w.y.K.!.b & . L xXxXiXkXrXzXzXzXuXqXkXxX",
"0XzXzXzXaXkXzXzXiXpXkXuX0X+X@ @ 7 <.D.w.p.e.w.p.i.j.C.h.j.i.i.e.e.e.i.a.Z.A.D.w.p.w.i.e.i.S.3.m + # W kXtXiXkXiXkXxXxXuX0XuXkXxX",
"xXuXuXuXaXkXaXzXkXkXpXuXuXpX&Xq - l S.p.w.i.i.y.i.i.e.e.i.e.i.i.i.e.i.w.j.j.w.p.i.e.i.w.i.F.X.+ : |.kXkXaXxXzXzXaXpXkXzXuXuXiXxX",
"xXxXkXzXuXkXkXzXzXiXkXkXkXaXzXg + / F.w.i.i.w.i.e.i.i.i.i.i.e.y.e.e.i.i.i.i.i.i.i.e.i.e.w.C.2.- + wXkXkXaXaXzXaXkXkXzXuXkXkXkXkX",
"pXxXkXzXzXuXzXzXzXkXkXiXkXkX4X* - =.D.w.i.a.e.i.i.i.i.i.i.e.e.y.e.i.i.i.e.d.i.i.i.e.i.i.e.S.M.9 . $XaXyXzXzXaXzXzXzXuXzXkXkXkXxX",
"xXxXkXkXuXuXuXzXkXkXkXaXxXuX@XX 9 b.l.i.a.y.e.i.e.e.i.i.i.i.y.e.e.i.i.e.y.a.e.i.e.y.i.i.i.l.J.n   Q uXyXzXzXzXzXuXuXuXzXxXxXxXkX",
"pXxXxXkXzXuXuXzXkXaXkXkXpXzX_   j A.t.i.y.y.i.e.y.y.i.i.e.e.e.i.e.i.e.i.f.f.i.i.i.y.i.e.i.t.F.' . H uX0XaXzXkXkXzXuXzXkXxXxXkXkX",
"xXxXxXkXzXzXkXkXkXpXuXuXzXyXK X V L.w.i.a.y.e.e.e.y.i.y.i.y.e.i.i.i.e.e.g.f.i.i.y.e.e.e.i.w.z.@.  = qX0XuXuXkXkXxXxXxXxXxXxXkXkX",
"kXkXkXkXkXkXkXkXkXzXzXuXuXcXi   } D.w.i.a.e.e.e.e.y.y.i.e.i.i.e.e.i.i.i.a.a.e.i.e.i.e.i.i.e.k.4.%   -XuXzXkXkXxXxXxXxXxXxXxXkXzX",
"zXzXkXxXxXxXkXkXzXzXxXxXkX<X$ X b.C.y.i.e.e.i.e.e.i.e.i.i.i.i.y.e.i.i.i.w.i.i.e.e.i.e.i.e.i.y.U.8   +XkXxXxXxXxXpXxXkXkXzXzXzXzX",
"uXzXkXxXxXxXxXkXkXpXxXkXkX&X  * b.x.t.i.e.p.i.e.i.i.i.i.i.i.y.y.i.y.i.i.i.i.i.i.e.i.e.i.i.p.t.~.z . Q aXxXxXxXkXpXxXzXzXzXzXuXuX",
"kXzXuXuXzXzXzXxXxXkXkXuXzXoX. 0 J.t.j.j.y.i.p.e.e.e.e.e.y.y.y.j.z.f.j.d.i.w.e.p.i.i.i.a.p.e.w.K.A . S kXzXkXxXpXxXxXkXkXzXzXuXuX",
"kXkXuXuXzXkXkXxXkXxXzXuXzX_ . k A.d.a.a.a.a.a.e.i.p.p.i.t.g.K.4.@.V.K.x.d.e.i.e.p.i.y.0.w.p.p.K.&.. w rXkXkXxXxXpXxXzXzXzXzXuX0X",
"kXkXzXuXzXpXxXkXkXxXkXpXuXI . B F.e.i.i.e.q.q.f.e.e.i.t.L._. .9 , n b.V.j.p.e.p.q.e.e.i.i.0.q.P.:.X % 4XkXkXxXkXkXxXkXzXzXzXkXuX",
"kXkXzXzXzXkXkXkXkXkXxXpXuXy . &.C.e.e.e.e.a.j.q.j.u.g./.;.z , . . X * ' n.S.l.q.y.i.y.e.i.j.f.A.R.+ . -XuXzXzXzXkXxXkXzXzXkXkXuX",
"kXkXuXzXkXkXzXkXaXxXxXxXtX> + ..g.q.q.e.e.e.e.e.h.P.W.n : X @ K oX*   @ 5  .^.P.f.y.r.y.y.e.q.g.v.< . +XzXzXuXuXzXkXzXzXzXzXkXkX",
"kXkXzXzXkXkXzXzXkXxXxXxX6X- + =.m.7.q.q.q.y.f.F.U.^ 5 X . y +XzX0X7XE @ O X f O.J.Z.h.r.r.y.q.r.M.9 O .XuXuXuXuXzXzXzXaXzXzXxXxX",
"kXkXkXkXkXkXzXzXzXaXpXpX;X+ - R.m.7.7.6.r.K.b...9 X   1  XpXzXtXxXpXxX:XL X   X k *.^.H.h.r.q.8.M.f O W zXtXuXuXzXzXaXzXkXkXxXpX",
"kXkXkXkXkXzXzXyXuXzXxXpX&XO + R.B.8.8.P.N.] 0   X   E <XzXuXtXkXpXpXiXxXzX:XL     X d O.B.A.8.m.M.l . U kXtXuXuXzXkXzXaXzXxXxXxX",
"kXkXkXkXkXkXzXzXuXkXpXpXOX+ > R.B.n.2./ 2 + .   S -X0X9XuXkXpXxXpXxXkXaXzXzXcX2XP X   # 9 ^ v.M.Q.v o P aXkXuXuXkXkXzXzXzXzXzXxX",
"kXkXkXkXkXzXzXuXuXrXiXxX|.+ 7 E.1.C > + O . u $X9XyXqX9XzXkXpXkXxXkXzXzXyXzXzXcXzX1XL X @ O : m -.x . u xXiXxXkXkXkXkXyXzXzXxXxX",
"zXzXkXkXkXkXkXzXuXuXkXxX! . 3 9 @ . . X 1 OXuXuXuXzXzXzXzXzXaXaXkXzXzXzXzXzXzXkXpXpXpX1XU % X   + ;   G kXkXxXiXkXxXkXzXzXxXxXxX",
"zXzXzXkXxXkXkXkXzXuXkXpXXX. O o   o = Q 8XzX8XzXtXzXkXzXaXaXaXaXaXaXzXzXkXxXaXkXkXxXpXzXzX1XQ X O o o oXaXiXpXxXxXxXkXyXzXxXxXxX",
"zXkXzXzXxXxXxXkXuXuXuXkXeXP   X i }.5XkXzXpXkXpXxXkXxXkXzXyXaXzXaXaXzXkXkXxXxXxXxXxXxXpXzXzXzX<X XW XXiXaXzXzXxXpXxXkXuXuXzXkXkX",
"zXuXuXzXxXxXpXxXzXuXuXzXkXxX1X,XiXzXzXaXtXkXxXxXpXpXxXkXzXuXyXzXkXzXkXpXxXxXkXpXkXkXpXuXzXaXzXaXkXtXzXaXyXyXkXxXxXxXzXzXkXkXxXxX",
"zXzXuXkXxXpXpXxXzX0XyXzXcXzXkXkXiXkXzXzXzXuXyXzXkXkXxXpXkXzXuXuXzXkXkXxXxXxXkXzXuXuXuXuXzXzXxXxXpXzXaXyX9X9XxXxXpXxXuXuXkXkXxXxX",
"zXzXuXzXxXpXxXxXuXuXuXyXzXzXiXkXkXzXuXuXzXyXzXzXaXzXkXkXkXpXuXuXuXuXpXxXxXkXkXuXuX0X0XyXuXkXxXpXpXaXaX9X9XuXxXxXpXpXzXzXkXxXxXxX"