/* XPM */
static char *_325635331b44fc5f1f3c43f5f6e4789UZCBqlYe2KIzgKxS[] = {
/* columns rows colors chars-per-pixel */
"64 64 226 2 ",
"   c #033602",
".  c #033C01",
"X  c #0B3709",
"o  c #0B3D0A",
"O  c #0B3C06",
"+  c #123D12",
"@  c #052B02",
"#  c #034402",
"$  c #094505",
"%  c #014E01",
"&  c #0A4B06",
"*  c #0C430B",
"=  c #054C09",
"-  c #0B4B0C",
";  c #06470D",
":  c #015201",
">  c #095306",
",  c #025B02",
"<  c #065309",
"1  c #0A530A",
"2  c #055E0B",
"3  c #0E5A0D",
"4  c #095E01",
"5  c #134213",
"6  c #134C14",
"7  c #1A4818",
"8  c #0E5C11",
"9  c #0E5511",
"0  c #145C14",
"q  c #175819",
"w  c #16510F",
"e  c #22511B",
"r  c #026302",
"t  c #0A6505",
"y  c #026C02",
"u  c #086D05",
"i  c #056308",
"p  c #0B640D",
"a  c #056D0A",
"s  c #0D6C0B",
"d  c #10620E",
"f  c #027301",
"g  c #0A7405",
"h  c #027B02",
"j  c #097B06",
"k  c #05750B",
"l  c #0A750B",
"z  c #057C0A",
"x  c #0B7A0B",
"c  c #10700F",
"v  c #0C6611",
"b  c #0E6D12",
"n  c #0A6717",
"m  c #136214",
"M  c #136B14",
"N  c #1A641A",
"B  c #166B1A",
"V  c #176618",
"C  c #0C7410",
"Z  c #0C7C12",
"A  c #067111",
"S  c #137213",
"D  c #1A7213",
"F  c #137A14",
"G  c #19771B",
"H  c #1F5726",
"J  c #285E2B",
"K  c #295726",
"L  c #335A34",
"P  c #2B4D2A",
"I  c #1C6724",
"U  c #0E7421",
"Y  c #177222",
"T  c #236A26",
"R  c #28692D",
"E  c #286A28",
"W  c #36652B",
"Q  c #366837",
"!  c #2F7635",
"~  c #387B38",
"^  c #247820",
"/  c #42683F",
"(  c #44743B",
")  c #3E7641",
"_  c #466E44",
"`  c #457745",
"'  c #467C4A",
"]  c #557954",
"[  c #018402",
"{  c #098504",
"}  c #018B01",
"|  c #0A8A06",
" . c #03810A",
".. c #0D830D",
"X. c #058C0A",
"o. c #0D8C0C",
"O. c #108A0D",
"+. c #019202",
"@. c #029B02",
"#. c #089903",
"$. c #029408",
"%. c #099507",
"&. c #149B08",
"*. c #0D8212",
"=. c #138413",
"-. c #128A14",
";. c #188719",
":. c #1B9617",
">. c #228B1D",
",. c #01A001",
"<. c #0CA50C",
"1. c #248C23",
"2. c #33812D",
"3. c #368836",
"4. c #359935",
"5. c #29922D",
"6. c #408F3C",
"7. c #4C884A",
"8. c #4A9548",
"9. c #598558",
"0. c #4F9453",
"q. c #589F59",
"w. c #5AA658",
"e. c #4DAA4E",
"r. c #60AF5E",
"t. c #699668",
"y. c #739573",
"u. c #749D75",
"i. c #6AA769",
"p. c #7CA97B",
"a. c #6DBB73",
"s. c #77B873",
"d. c #73A767",
"f. c #74C17A",
"g. c #77C778",
"h. c #809E7C",
"j. c #7EB782",
"k. c #7CCA82",
"l. c #829A80",
"z. c #89AC88",
"x. c #88B58B",
"c. c #94BB85",
"v. c #97BB96",
"b. c #84CF87",
"n. c #92C98E",
"m. c #8BD28E",
"M. c #8EDB8E",
"N. c #97C697",
"B. c #96DA98",
"V. c #A6C6A6",
"C. c #B3D6B2",
"Z. c #BDDDBB",
"A. c #B5D7B5",
"S. c #AFD5A6",
"D. c #9EE2A5",
"F. c #A7E9A9",
"G. c #A9F7A9",
"H. c #BDECBE",
"J. c #B7E6B8",
"K. c #BAF5BC",
"L. c #C0DDBF",
"P. c #C4ECBB",
"I. c #BFEEC2",
"U. c #BBF6C0",
"Y. c #C7DDC8",
"T. c #C5E6C5",
"R. c #CBF3CA",
"E. c #CCFDCD",
"W. c #C4F5C4",
"Q. c #D2FFCF",
"!. c #D3FDD4",
"~. c #D6FFDA",
"^. c #DBFEDC",
"/. c #D9F5D7",
"(. c #D2E9D6",
"). c #E4F4DD",
"_. c #E4FFDD",
"`. c #ECFEDB",
"'. c #E8FFD5",
"]. c #F2FFDF",
"[. c #E5E8DD",
"{. c #E4DCEA",
"}. c #EDDEEC",
"|. c #DFE3E2",
" X c #DCFFE0",
".X c #E6ECE4",
"XX c #EBEBE6",
"oX c #E7E4E8",
"OX c #EBE6ED",
"+X c #E6ECEB",
"@X c #EBECEC",
"#X c #E8E5E4",
"$X c #F1EDEC",
"%X c #F7E8ED",
"&X c #E4F2E4",
"*X c #EAF3E5",
"=X c #E4FEE4",
"-X c #EBFEE5",
";X c #EDF4EC",
":X c #E6FEE9",
">X c #ECFEEC",
",X c #F2F3EE",
"<X c #F2FEED",
"1X c #F9FEEC",
"2X c #F9F8EA",
"3X c #EEEDF2",
"4X c #EEE6F5",
"5X c #F3E6F2",
"6X c #F3EDF4",
"7X c #FAEFF6",
"8X c #F6ECF9",
"9X c #FCEEFD",
"0X c #FAE0FB",
"qX c #EEF2F2",
"wX c #EDFDF2",
"eX c #EDF5F8",
"rX c #F3F3F4",
"tX c #FAF6F5",
"yX c #F4FDF3",
"uX c #FAFCF5",
"iX c #F5F4F9",
"pX c #FCF4FD",
"aX c #F5FBFA",
"sX c #FFFBFF",
"dX c #FFFEFF",
"fX c #FDFCFD",
/* pixels */
".XtXfX5XpXpX9XeXfXeXqXyXyX2X7XuXXXyXyXyX:XwX=X!.E.U.D.B.m.b.k.g.s.a.a.k.b.m.B.D.J.E. X:X:XwXwX:X>X>X).;XfXpX9XsX4XeXaXqX+XfX%X%X",
"uXXXfXiXpXfX8X3XaXaXuXuX-X,X1X1X<X=XT.V.x.t.9.) ! R I q 0 0 0 8 v 3 v 0 V V Y I T ! ) 7.t.v.C.T.!.=X>XyXrX;XtXpXpX+X;XtXuXfX7XfX",
"tXaX3XfXrX3XfXfX@X*X-X-X-X=XH.x.7.2.E N m m 3 2 < < < = > = > & > : > 4 4 , 2 r p b b s v B B B ! 0.N.E.=X<XyX,XuXfX,XrXfXrX$XsX",
"fXiXeXaXfXuX[.1X1X1X`.S.t.! I n D t , , , : : : : : : : = % % # % % > t t i u k f z z z z z z f C b B 0 ` N.R.>X<X).2XfXrXqXfXfX",
"eXeXfXaX,X1X2X'.'.c.( q v Y U A , : : : : % % : % % % % % % % % % : , , r y y f h [ [ [ +.+.+.| { f x G F p T s.P.`.<X*XrXsX8X{.",
"iXiXrXyX<X`.].c.W 0 M G B i , : : % % % : % : : % : : : % % : % % % : : r r y f f h [ } +.+.+.+.&.:.{ f z Z a M N n.-X<XyXtX8XsX",
"fXOXtX,X1XP.d.d D c Z C r , : , % = = = % % % % % % % % % % % % % % : : , i f f h h h [ } } +.#.[ &.#.%.} [ h Z S 8 d.=XyX$XsX9X",
"}.sXfX=XR.~ d D l x k r : : : % # % % % % % % % % % % % % % % % % % % % , r r y f h h [ } } +.+.#.@.@.<.@.[ } f x S 0 p.-XfX9X5X",
"9X7XrX:Xi.n Z z f j g , : % % : : : : : : : : : : : % : % $ % % % = % % : : i S u g z { [ } | +.@.,.,.<.#.} [ h g c B R ^.>XfXrX",
"9XsX-XW.3.A z h  .z y : % : : : , : : : : : : % % % % % % % % % % % % % % : r y y k j z  .X.o.+.@.@.,.,.+.[ h h j l M I W.=XqXfX",
"9XiXaXU.n A h h h z g r % % % : % % % % : : < : : : % % : % % < : % % : : : , r g f h [ X.X.$.+.@.,.,.%.| [ h h h l M 8 J.<X*XtX",
"4XrXwX~.! F y { f  .Z l , : % % # = = & = = % # & % % % % % % % % % % % % : : : f z  . .[ } $.@.$.@.} } h h h  .f x M 0 W.<X$X$X",
"fXaX:X Xw.D f f h h k k C s , % = ; ; ; - - - & & % = % : : : : % % % : : : : , r f {  .} } +.$.} [ [ h h h h z Z a 2 R ^.*XtXsX",
"sXfX&X:Xs.D j h  .h h h x k g r , < = % % = % : % % % % : : : : : % % : : : : : % r f h [ [ } [ h h h h h  .z k a , # ` >X*XsXsX",
"0X9XyX=XM.F ..[ h h z z h h h z z h y r , , : : : % : % % % % % % % # % % % % : : , u f h h h h h h h h h k f r % =   ] yXyXfX4X",
"9XpXyX=XF.>.o.} [ h h f z h h h h h [ { j h f g r r r r , , : , , , 2 2 2 2 p s s l g g j j j h g j j f y r : % % & X p.yXqXeXfX",
"sXsX&X:X!.^ :.} } } [ h f f h h h h h h h h f j j j l g g x l l g z z j k x Z x C l k k j l l l a t r : : : % % = & O v.<XXXuXfX",
"tX,XuX:X~.8.=.} +.} } [ j j h f f f f f h z z j z h j j j j j j j z j z x j x x x l l g a r r r : : : : % % : % % - o N.yXyXtX7X",
"7X6XfX:X^.i...+.} }  . .x l h f f f y f f y y y y y y f f f u f u y u y y r i r , , , : : % % % : % % % % : : % # & + Z.<XaXsX5X",
"sXtXiXwX-Xs.*.%.} } X. .l l g h f f y y r r r r r , r , , , , , , : : : : : : % : : % % : : : : : : : : : : % % % $ 7 !.>X;XfXsX",
"tXsX8XaX<Xn.=.%.+.} }  .l l h h f f y y y r y r , r , : , : : : : : % : % % % % % % & : & % = % % % % % : : : % % # K =X-X;XsXsX",
"rX6XsX8X<XK.=.} +.} } z l l h h f y a y y r i r r , , , , , : : % % % % : : : % % % % % % % % % % % % : : : : % & O ` -X<XfXsX5X",
"rXiXsXiXyXE.1.} +.+.[  .x x h h f f y y r r r r r , , < : < : : = % : % : % % : < % % : < : : : < % : : : : : % & O 9.:XyXtXpX8X",
"fXfX4XfXuXR.4.%.+.} }  .x x [ h f y y y y y r r , 2 , , : : % % : % < % = % % % % : % % % : % % % # % : : : : % &   y.>XuX$XiXsX",
";XyXfX3X,X-Xe.| #.} [ X.y { [ h h f y y y y y r r , , , : , < : % : % : % : % : % : : : : % % : % % % % : : % $ * O V.yX;XfXiX5X",
";X;XsXpXrX-Xa.;.{ { } h -.h h [ h f f y y y r r r , , , , : : % = % % : % : % % : : % : % : : : # % % : : % > & 7 P ).yX$XfXtXtX",
"yXfX+XfXuX_.G.B >.h X.[ f [ h h h f f f y y r y r , , : , : : : : % % % % % % % : % % % % : % % = % % % : % 0 * @ l.fXyXfX@XfXfX",
"yXuX;XrXtXyX^.8.D 1.h [ [ h } f f f f f y y y r r r , , , , : : % % % $ & % % = & % % % % % % % % < : % % % $ X L (.fXrXsXrXfX;X",
";X#XfXrX2XfX:XI.7.D -.h o.h z h h f f f y y y r r r , , , : : : % % % % % % % & % % % : : $ % % % % % : : # $ _ T.tXsXiX6XfXuX.X",
"fXrXrXuXtXXXaXwXT.3.;.[ [ h j j f f f y y y r y r , , , , , : : % % % % % % % % % % % $ % % % % % % % : % # ` T.aXfX9X9XfX@XyXyX",
"sXfX@XuXsX}.fXwX<XP.5.[ o.f x k f f f f y y r r r , , : : : : : % : % : % : : : % : % % % % : % < % % % % $ N.yX.XsX0XpXfXoXyXyX",
"6X5XfX,X6XsX7X6XyX=XG...h { x k g g y y y y r r r , , , : , : : : : : : : % : : : % : : % : % : % : : % % # C.>XrX6XsXpX3XfXyX;X",
"pXqXtXyXtXsX6XfXfX:XE.4.| } h f h g g y a r r , 2 , , : : , : : % % : % % % % : % : % : : % % % % % : # = 6 T.aXaX8XsXtXrXuXrXaX",
"fXfX&XyXfX+XfXfXOXyX:X8.[ } } h f y y y y a a i i 2 , 4 4 : : : : % % % : % % % % % % % % % % % % % : % 9 H (.eXfXfXXXfXuXXXfXfX",
"iXiXaXwXrXsXrXtXfXyX=Xw.O.+.}  .h f y r , r r r , 4 , , : : : % % % % % % % % % % % % % % % % % % % % : = J :XaX8XiXsXrXyXuXtXiX",
"3XqXuX;XqXsXrX,XfXyX Xs.O.+.}  .*.x f y r , , , : : , : : : : % % % % % % % % % % % % % % % % % % % % < # Q wXfX3X6XfX,X,XfXrX3X",
"sXsX.XuXsX@XfXfXOXaX:Xm...+.%.[ h z h x k y r : : : : % % : % : % % % % % % % % : % % % : % % % & : # > # 9.wX&XsXsX@XuXuX*XfXfX",
"sXtX;XfXtXtXrXfXiXqXwXF.-.} X.[ [ h h h f g y r , , : : % % % % % % % % % % % % % : % > % % : : & % % > . t.wXqXsXpXrXuXtXqXfXfX",
"6X6XfXrXtXsX,X;XfXqX:XU.1.} [ } [  .h f y y u u t 2 , : : : : % % % % : % : % % % % % % % % % % % % : :   p.wXfX6X6XfX,X;XfXrX6X",
"tXfXrXtXtXrXuXrXiXeXaX!.5.o.X.[ [ [ [ h h f y r t i 2 , < , : % % % % % % % % % % % % % % % % % % % % > = v.wXiX7XsX6XyXyX,XsXiX",
"fXfX+XsXsX$XuXfXOXfXaX~.4.o.} } } [ h h h f f y i i 4 2 , , , % % % % % % % % : % % % % % % % % % % % % $ C.yXXXsXsX+XuXuX@XfXsX",
"rX3XsXtX8XfX;X<XfXpXeX:Xr.-.} } [ [ [ h f f y y y i 2 , , < : : % % % % % % % % % % % % % % % % % % % & * C.uXfX9X6XfXyXyXuX6XiX",
"tXrXsX6X8XfX-X;XsXpXqXwXg.-.} } } [ [ h h f y y r i i , , > : : % % % % % % % % % % % % % : % % % % : & 5 T.yXfX8X7XfX;X;XuXrX7X",
"iXfX3XsXsX,XyX<X3XpXiXwXM.*.o.} [ [ [ h h f f y y r , , , : : : : % % : % % % : : % % % % % % % % % > # e `.uXrXsXsX3XyXyX;XsXpX",
"iXfX6XsXsXrX<X<XrXpXpXwXF.=.O.+.[ [ [ h h f f y r r r r , : , : % % % % : % % % % % % : % % % : % = = # L 1X2XrXsXsXqXyXyX;XfXsX",
"qXqXfX8X8XfX*X-XfX9X9XtXP.>.{ } } [ [ [ h f f y y r r , , , , : % % % % % % % % % % % % % % % % % % % # ( -X,XfX8X6XfX;XqXuX6X7X",
"yXqXsX8XiXfX-X<XsX8XpXrXE.4.{ } } [ h h h f f y y r r , , , , : : % % % % % % % % % % % % % % % : % % $ 9.].,XsX9X7XfXwX;XfX6XtX",
"aXaX3XsXsX@X<XuX@X9XsX-XE.e.O.} } [ [ [ h f f f y y r r , , : : : % % % % : % % % : % % % : % % : : % O t.<XuX@XfXpX;XaXuX@XtXsX",
":XyXfXpXpXsXyX-XfX7XpXiX:Xw.o.+.} } [ [ h h f f y r r r , , < < % : : % % : % % % % : = % % : : : : % o z.<X1XuXtXiXfXqXqXfXiX7X",
"&X>XfX9X9XsXrX*XuXrXiXeXwXf.O.+.} } [ h h h f f y y r , , , : : : % : : : : % % : : % % : : % : % : % o v.uXXXfX3XfXaXaXaXaXsX3X",
">XaX6XsXsX5XuXyXqXaXsX8X-XB.=.[ { [ [ [ h f f y u r r r , , , : : % % % % % % % = % % % % % % % % % ; 5 A.uXyXrXfXfX3XaXfX3XfXpX",
"yXyX8XpXpXtXyX<XrXtXpXpXyXK.G ..| [ h h f f g y y r r r r , , , : % % : % % % % % % % % % % % % % < $ L ).uXuXrXfXqXaXeXaXaXrXsX",
"*X;XsX8X6XfX&X-XuXiX0XsXaX!.3.>.{ } [ h h g u u t r r , r , , : : % % % % % % % % % % % % % % % # q X y.aXyX@XfX3X6XfXiXqXfXqX3X",
"aXaX6XpXsX$XyX<X;XsXsX5XyX-Xs.c { } [ h h f f y y i r , , , , : % % % % % % % % % % % % % % $ % ;   7 Y.;XyXrXpXfXaX3XaXfX3XaXfX",
"fXfXoXsXsX#XyXuX.XfXsX7X,XyXJ.~ ..} [ [ [ h h f y y r r 4 , < : % % % : % % % % % % % % % % % & 6 + y.:X*XfXfX6XfXfX+XfXfX@XtXfX",
"3X3XsX7X6XfX-X*XuXrX5XsXsX.X].M.F { [ [ h h h f y y r , , < < = : % : : : : : : : : % % % % % & X ] =XwXfXrXrXfX3XiXfXrXyXfXrX3X",
"rXiXfXtXrXfX,X*XfXtX5XsXsXXX<X=Xr.S l *.h h h f f y r y i : < = % % % : % : : % : % % : < % % * L &X:X;XfXiXpXsX7XrXfX,XyXfXrXrX",
"fXsXOXfXfX.XuXfXXXuXsX5XpXsX.X_.~.w.v B F z h f h f y r , 2 < : : % : : : % % : : : % # & & - J L.:XfXuX+XfXiXoXsXfXXXfXfXXXfXfX",
"pXiXtXiXuXrXrXyXrXtXpXpXiXtXuX-XwX:Xx.R 3 b k y f y y y r , 4 : % % % % % % % % 1   ; q   ; i.~.yXuXqXaXiXiXfXsXiXtXrXrXyXtXqXaX",
"3XrXfX,XrXfX,X@XsXtX5XfXiX@XfXtX|.aXwXC.' 0 G M k f y y , : : : % = % # = 9 1 $ $ 6 7   L C.:X(.-XfX;XrXfX3XiXfX3X,XfX,XqXfXqX3X",
"sXfXXXfXfXXXfXsX3XpXfX3XfXfX@XtXsXtX.XaX Xx.) 9 3 % : v m 3 3 > - 6 - - 6 - o 5 * + L z.=XwX&XuXuX#XfXtXiXfXqX3XfXfXXXfXfX@XfXaX",
"fXrXqXuXfXqXiXsX6XpXsXrXrXuXtXqXfXtXrXaX&XwXwXZ.u.` H * * * * * * + X o 5   + Q u.Y.yXyXuXqXrXfXtXXXfXfXrXfXfXqXfX2X$XuXuX@XaXfX",
"rXrXfXrXrXfXiX8XsXiX3XfXyX+XfXyXXXuXuX;XyXaXwXwXyX(.A.V.z.u.] _ ) _ ] y.x.v.A.-X<X>XyX$X3XsXsX}.7XsXrXrXfX+XfXuXrX,XfX,XrXfXqXiX",
"XXfXyX,XrXfXsX4XpXpXfXqXaXyX3XuX;X2X1X,XuXfXOXaXaXaXaXiX>XyX;X-X^.;X-X=X<X>X-X<X,X-XuXsXpX9X9XpXtXtXtX+XfXeX3XfXXXfXuX,XrXfXfX+X"
};
