/* XPM */
static char *ba7df5d8059d448c9bb8a1a227330884G2eICrLyFentdq85[] = {
/* columns rows colors chars-per-pixel */
"64 64 242 2 ",
"   c #020101",
".  c #0C0100",
"X  c #030D04",
"o  c #180900",
"O  c #001300",
"+  c #031D06",
"@  c #1A1A19",
"#  c #191206",
"$  c #240F00",
"%  c #221300",
"&  c #2D1B00",
"*  c #291B07",
"=  c #341C00",
"-  c #002401",
";  c #002C04",
":  c #02250C",
">  c #002A0B",
",  c #192700",
"<  c #003303",
"1  c #003C03",
"2  c #00320B",
"3  c #003F09",
"4  c #072C12",
"5  c #18261B",
"6  c #093614",
"7  c #13361A",
"8  c #1A3700",
"9  c #3B2400",
"0  c #362505",
"q  c #3F3009",
"w  c #1B3A23",
"e  c #272827",
"r  c #273C2D",
"t  c #3C3528",
"y  c #3B3B3B",
"u  c #393835",
"i  c #2E3530",
"p  c #431900",
"a  c #432500",
"s  c #442B00",
"d  c #492C03",
"f  c #522C00",
"g  c #4A3507",
"h  c #563904",
"j  c #473A17",
"k  c #663A00",
"l  c #713C00",
"z  c #493D22",
"x  c #024800",
"c  c #005209",
"v  c #005406",
"b  c #004B14",
"n  c #044618",
"m  c #045919",
"M  c #134F14",
"N  c #006518",
"B  c #046B14",
"V  c #095A22",
"C  c #194E28",
"Z  c #24462D",
"A  c #294C34",
"S  c #38473A",
"D  c #325137",
"F  c #086926",
"G  c #136729",
"H  c #047427",
"J  c #1A6A32",
"K  c #147933",
"L  c #24763C",
"P  c #58400A",
"I  c #584517",
"U  c #564D0E",
"Y  c #644400",
"T  c #6A4B06",
"R  c #755402",
"E  c #75560C",
"W  c #72520F",
"Q  c #79671A",
"!  c #584926",
"~  c #4C4737",
"^  c #655738",
"/  c #6D5726",
"(  c #76623D",
")  c #3F5644",
"_  c #267941",
"`  c #444443",
"'  c #5D5648",
"]  c #595858",
"[  c #4B544E",
"{  c #45634C",
"}  c #4B6453",
"|  c #507055",
" . c #736D55",
".. c #636362",
"X. c #6C6C6B",
"o. c #787876",
"O. c #657C6C",
"+. c #6A5F43",
"@. c #815901",
"#. c #895100",
"$. c #8A6607",
"%. c #976A03",
"&. c #846419",
"*. c #99731B",
"=. c #A47B15",
"-. c #AA7403",
";. c #937226",
":. c #A27D24",
">. c #8A7952",
",. c #827969",
"<. c #0B8E35",
"1. c #068F33",
"2. c #19883C",
"3. c #039533",
"4. c #0A9236",
"5. c #009832",
"6. c #0C9539",
"7. c #0F983B",
"8. c #13933C",
"9. c #15993D",
"0. c #07812E",
"q. c #21813A",
"w. c #1D8D42",
"e. c #1B9342",
"r. c #169940",
"t. c #1A9844",
"y. c #288946",
"u. c #34854C",
"i. c #219545",
"p. c #2A934B",
"a. c #28984B",
"s. c #389353",
"d. c #31994C",
"f. c #768979",
"g. c #698070",
"h. c #449962",
"j. c #B98C1E",
"k. c #8F8525",
"l. c #AD8933",
"z. c #B28D33",
"x. c #AC8525",
"c. c #C48802",
"v. c #D89806",
"b. c #DBA318",
"n. c #EBAB09",
"m. c #F4AE03",
"M. c #FBAF02",
"N. c #F4AE0A",
"B. c #F8AF08",
"V. c #F7B101",
"C. c #FDB102",
"Z. c #F4B00B",
"A. c #FCB30B",
"S. c #EDAD12",
"D. c #E1A415",
"F. c #F1AE15",
"G. c #F4B213",
"H. c #F9B515",
"J. c #F6B51B",
"K. c #FBB91A",
"L. c #CA9A2A",
"P. c #CC9E32",
"I. c #D9A93A",
"U. c #D8A52A",
"Y. c #E3AC2C",
"T. c #F6BA24",
"R. c #F5BC2C",
"E. c #F8BA26",
"W. c #EBB735",
"Q. c #F3BD34",
"!. c #F2BC39",
"~. c #E9B42A",
"^. c #F8C33A",
"/. c #F7C02F",
"(. c #A48A4E",
"). c #8D8369",
"_. c #958C78",
"`. c #928A73",
"'. c #AB9E6A",
"]. c #D4AF4B",
"[. c #ECBB45",
"{. c #EEBB46",
"}. c #CCAF69",
"|. c #E1BC63",
" X c #F4C345",
".X c #EBC151",
"XX c #black",
"oX c #black",
"OX c #black",
"+X c #black",
"@X c #black",
"#X c #black",
"$X c #black",
"%X c #black",
"&X c #black",
"*X c #black",
"=X c #black",
"-X c #black",
";X c #black",
":X c #black",
">X c #black",
",X c #black",
"<X c #black",
"1X c #black",
"2X c #black",
"3X c #black",
"4X c #black",
"5X c #black",
"6X c #black",
"7X c #black",
"8X c #black",
"9X c #black",
"0X c #black",
"qX c #black",
"wX c #black",
"eX c #black",
"rX c #black",
"tX c #black",
"yX c #black",
"uX c #black",
"iX c #black",
"pX c #black",
"aX c #black",
"sX c #black",
"dX c #black",
"fX c #black",
"gX c #black",
"hX c #black",
"jX c #black",
"kX c #black",
"lX c #black",
"zX c #black",
"xX c #black",
"cX c #black",
"vX c #black",
"bX c #black",
"nX c #black",
"mX c #black",
"MX c #black",
"NX c #black",
"BX c #black",
"VX c #black",
/* pixels */
"dXvXNXdXvXNXdXvXNXdXvXNXjXvXNXdXdXNXvXdXNXvXdXNXvXdXNXvXdXNXvXdXNXbXdXNXmXdXNXvXdXNXMXdXNXmXfXNXNXdXmXNXdXMXNXdXBXNXdXBXNXdXvXNX",
"vXvXvXmXbXvXmXBXvXmXmXvXmXvXvXmXbXvXvXmXvXvXbXvXvXmXvXmXvXvXmXBXvXBXvXvXvXNXmXvXBXvXmXmXbXvXBXvXvXmXvXvXBXvXvXBXmXvXmXvXvXBXBXvX",
"NXmXjXNXBXdXNXmXdXNXmXdXNXmXdXNXmXdXmXNXdXmXNXxXmXNXdXmXNXxXvXNXdXvXNXvXNXvXeXNXNXdXvXNXvXvXNXxXxXNXvXjXNXvXxXNXvXjXNXvXvXNXvXxX",
"dXvXNXdXvXNXjXvXNXjXvXNXdXvXNXxXvXNXjXjXNXvXxXNXvXdXNXvXdXNXvXdXNXmXdXNXX.e y ` >XNXBXdXNXmXdXNXNXdXNXNXfXNXNXfXBXNXdXvXNXdXbXNX",
"NXvXdXmXBXvXmXBXvXmXbXxXmXNXjXbXBXvXvXBXvXbXmXjXBXNXxXvXmXvXbXnXdXvXNXo.y BXvX-X@ #XNXBXxXvXNXvXvXMXvXxXMXvXvXNXvXxXMXvXvXNXvXvX",
"NXvXvXNXvXjXNXmXjXmXbXjXmXBXjXmXmXvXmXmXdXBXNXjXvXNXvXbXmXjXBXBXvXNXNXe sXNXNXNXsX@ ;XNXxXvXNXvXvXNXvXvXmXvXvXMXvXvXMXvXzXmXvXxX",
"dXvXNXdXvXNXdXvXNXdXvXNXdXvXNXvXjXNXvXdXNXvXdXNXvXdXNXvXdXNXvXjXnX_.t t NXNXNXmXNX9X@ aXNXmXfXNXNXdXmXNXdXMXNXdXmXNXdXmXNXdXvXNX",
"NXvXvXmXbXdXNXmXdXNXBXdXNXmXdXmXNXdXmXNXdXvXNXdXbXnXxXvXNXdXNXgXq I / ~ NXNXNXNXNXNX..o.NXxXNXvXxXNXvXvXNXvXxXNXBXxXNXvXvXNXvXjX",
"mXmXvXmXbXvXbXBXvXBXvXvXbXvXvXvXBXvXBXBXvXvXvXvXvXbXvXvXBXjXNX! T XXl.! nXNXNXNXdXdXeXe vXvXBXvXvXBXvXvXmXBXvXmXvXvXmXvXvXmXmXvX",
"dXvXNXdXvXNXdXvXNXdXvXNXxXvXNXvXdXNXxXxXNXvXjXNXvXxXNXvXdXNX0X= W.W.x.P kXNXNXNX..@ BXy 9XNXfXNXmXdXnXNXdXmXNXdXmXNXdXmXNXdXvXNX",
"NXvXdXNXBXdXNXmXdXNXmXdXNXNXdXmXNXdXMXNXdXmXNXdXmXNXdXBXNXnX .W /.J.z.f lXNXNX9X-X` ,X..$XNXNXzXvXNXvXdXNXvXdXNXvXcXNXvXdXNXvXdX",
"vXBXmXvXvXBXvXBXmXvXBXBXvXvXmXvXvXBXBXvXvXvXBXmXvXbXbXvXvXkXI :.T.H.I.s pXNXNXdX@   9X..-XNXzXBXbXvXBXvXvXbXBXbXvXmXvXmXmXvXbXmX",
"xXvXNXjXvXNXjXvXNXjXvXNXjXvXNXvXjXNXvXvXNXvXvXNXvXcXNXvXbXkX9 L.J.Z.!.f 2XNXBXNXX.u NX` ' tXxXNXmXdXBXNXdXBXNXdXmXNXdXbXNXdXmXNX",
"NXbXdXNXBXdXNXmXdXNXmXdXNXmXdXNXNXdXMXNXdXmXNXdXmXNXfXNXlXI k W.G.Z.R.T (.nXnXnXNXNXlX0 I s j _.kXNXdXxXNXvXdXNXvXdXNXvXdXNXvXdX",
"vXvXmXvXvXmXvXvXmXvXvXmXvXvXmXvXvXmXvXvXmXvXxXmXvXcXNXpX9 R Q.G.V.A.K.-.a >.( ).7XnX%Xd XX].l.g s wXnXvXjXBXbXvXmXNXxXvXNXjXBXBX",
"jXvXmXvXvXNXdXvXNXvXvXNXjXvXmXvXvXmXvXvXNXvXcXNXvXjXnXj @. XN.C.C.A.G.D.j.:.;.&.P / a z.Y.l #.[.;.$ 7XNXdXBXmXjXbXmXxXbXNXjXBXNX",
"NXvXdXNXmXdXNXMXdXNXBXdXNXNXfXNXNXfXNXNXfXMXNXdXvXnX).d  XZ.C.C.C.C.C.A.K.E.E.R.!.c.#.W.D.-.-.-. Xj.% 6XNXxXdXNXvXdXNXvXdXNXvXdX",
"vXvXNXcXvXNXzXmXNXxXvXNXxXxXNXvXvXNXxXxXNXvXxXNXvXlXg l.T.V.C.C.C.C.C.C.C.V.C.V.M.H.F.N.H.H.F.S.Z./.;.g kXMXNXzXBXNXjXmXNXcXvXNX",
"vXvXmXvXvXmXvXvXBXvXvXNXvXvXmXvXvXNXvXvXmXBXvXBXNXiXa I.J.C.C.C.C.C.C.C.C.C.C.C.M.M.A.A.M.B.A.A.V.G.!.d _.NXvXvXvXmXvXvXmXvXmXmX",
"NXvXdXNXmXdXNXBXdXNXBXdXNXNXdXNXNXfXNXNXdXmXNXdXNXpXa I.J.M.M.C.C.C.C.C.C.C.C.C.M.M.M.A.M.M.C.C.C.C.E.=.I NXdXNXvXdXNXvXhXNXvXdX",
"dXvXNXdXvXNXvXvXNXvXvXNXdXvXNXvXxXNXxXxXNXxXzXNXvXlXd z.T.C.C.C.C.C.C.C.C.C.C.C.C.M.H.v.A.M.C.C.C.C.A.Y.= iXNXdXBXNXdXbXNXdXmXNX",
"bXBXmXmXvXvXvXvXvXvXvXvXvXmXvXvXBXvXvXvXBXBXmXmXvXnX .T Q.m.C.C.C.C.C.C.C.M.C.C.C.A.E.%.c.A.M.C.C.C.M.W.s 3XNXvXbXvXvXvXvXBXmXvX",
"NXBXdXNXmXdXNXmXdXNXBXdXNXmXdXNXNXdXNXNXdXNXMXdXBXNXwX& U.J.A.M.C.C.C.C.C.C.C.M.M.N.W.l c.K.C.C.C.C.C.R.s :XNXNXvXdXNXvXjXNXvXdX",
"dXvXNXdXvXNXdXvXNXjXjXNXdXvXNXdXdXNXdXdXNXxXfXNXvXfXNX>.f {.G.V.C.C.C.C.C.C.C.M.M.H.I.p v.G.A.C.C.C.C.W.9 rXNXdXBXNXdXmXNXdXmXNX",
"mXbXvXBXvXvXmXbXvXBXBXvXbXbXdXbXNXNXNXNXmXNXNXNXNXNXvXnX! &./.Z.C.C.C.C.C.C.C.C.V.E.Y p ^.Z.C.M.C.C.J.j.g mXvXBXbXvXMXBXvXmXBXvX",
"NXbXdXNXvXvXNXBXdXmXbXxXBXbXNXNX5XO.} ) A D } O.;XhXfXo.t . $./.G.C.C.C.C.C.C.C.C.j.@.f %.E.N.C.A.F.!.h ).NXdXmXvXjXNXvXxXMXvXxX",
"dXvXNXdXvXNXdXvXNXdXvXNXvXNX;X7 < n M < G F F b < 7 5 ..9X%X# E W.Z.C.C.C.C.V.V.V.n./.b.= L.K.V.N.^.*.0 gXmXNXdXBXNXdXvXNXdXmXNX",
"NXvXvXNXmXzXNXvXjXmXbXxXMX{ - J y.i.p.c <.8.8.e.s.- f.NXNXNXNXg #.K.V.A.H.E.R./.R./.R..XR k !.E.^.@.& wXNXvXvXNXvXvXNXvXxXNXvXzX",
"mXvXvXBXbXjXBXbXvXmXBXNX{ < p.8.3.<.e.v H 7.1.8.J 6 MXNXNXvXX.% @.K.m.F.I.Y h W E W T h = & ].;.9 I iXNXBXvXvXnXvXvXNXvXvXmXvXvX",
"dXvXNXdXvXNXdXvXNXdXNX&X- p.4.5.3.3.r.N B t.3.e.V { NXmXNX]   . l.!.~.W.R h 4X).>.)._.:XwX@ = / :XBXNXmXdXmXNXfXBXNXdXmXNXdXBXNX",
"NXBXdXNXmXdXNXBXdXNXNXw G r.3.5.5.3.r.H 1 F 2.s.7 f.NXNX9Xy 9X  o &.].|.9 # *XnXNXnXnXNXnXrXpXnXNXNXxXxXNXvXvXNXvXdXNXvXjXNXvXdX",
"BXbXvXmXBXbXvXBXvXNXqX: 2.5.3.3.3.6.<.x H N v F ; $XNXNX=X  -XiX` . o & . @ e -XNXjXvXvXvXNXBXvXvXvXvXbXvXvXvXvXbXvXBXvXvXBXvXbX",
"dXvXNXvXvXNXzXvXNXNX;X> e.3.5.5.1.6.x H r.7.<.F O ;XNXNXo.    6XNXwX`.` z >Xo.X.NXmXNXdXNXmXdXNXmXdXmXNXdXmXNXdXmXNXdXBXNXdXmXNX",
"NXvXdXNXmXdXNXmXfXNX<X> e.4.3.4.9.N N e.3.5.5.a.> <XNXnX' *   o.NXNXNXMXmX-Xe rXNXdXvXNXdXvXNXcXvXNXjXvXNXvXjXNXvXdXNXvXdXNXvXdX",
"vXvXmXvXvXmXvXvXmXNX5X: y.r.9.t.H x r.3.5.5.3.e.> 5XNXkXf '.% ' tXNX6X~ ` # -XMXdXBXvXvXBXBXvXmXvXvXvXmXvXvXvXvXmXBXvXvXmXvXBXmX",
"vXvXmXvXvXNXjXvXNXbXaX4 F N N v x 2.4.3.5.5.3.2.> rXNXpXa }.P ).2X! = ;.h o z *XjXNXBXjXNXmXxXmXmXxXmXNXjXmXmXvXBXNXxXbXNXjXBXNX",
"NXmXdXNXbXdXNXbXfXNXNXD 1 H H H c y.3.5.5.3.7.K 7 mXNX7Xs .X&.= T a L.^.W.-.=.= ,.NXjXNXdXjXNXjXjXNXjXdXNXvXdXNXvXdXNXvXdXNXvXdX",
"dXvXNXvXvXNXxXvXNXdXNX&X1 s.8.r.v H 6.5.3.4.a.< O.NXNX_.k !.Y.U.U.Y.K.m.G.K.^.P.0 NXBXdXmXmXvXmXBXvXNXmXjXmXmXdXBXmXvXmXNXxXvXNX",
"vXvXmXvXvXNXvXvXmXvXmXbX4 J 8.8.N m r.3.4.i.n Z MXNXNX^ =.Q.S.G.G.A.A.M.M.N.E.-.g NXvXjXmXmXvXBXbXvXvXvXvXvXmXvXbXmXvXvXmXvXbXmX",
"NXvXdXNXbXdXNXbXdXNXvXMX$X; i.<.K c 8.6.p.1 Z MXNXNXNX% P [.^.E.A.B.C.C.C.M.Z.U.9 ,XNXNXxXvXNXdXvXNXvXdXNXvXvXNXvXdXNXvXdXNXvXdX",
"dXvXNXvXvXNXvXvXNXvXvXNXjXw G w.2.v 2._ ; { bXNXmXNX,Xz X.= T =.Y.F.M.M.C.V.Z. XW ,.NXdXNXmXdXNXNXdXmXNXdXNXNXdXmXNXdXBXNXdXBXNX",
"vXvXmXvXvXvXvXvXbXvXvXvXNX| + _ s.m < ; OXNXNXmXmXNXe #XNXwX`.P f {.J.B.Z.n.R.x.% 5XNXvXvXvXvXBXvXvXBXvXvXvXbXvXBXBXvXvXbXvXbXBX",
"NXBXdXNXmXdXNXvXdXNXBXdXNX[ + : 4 : { rXNXNXNXmXNX+X` #X>XNXNXkXz Y {.Q.J.^.R & 7XNXdXNXvXvXNXvXvXNXjXjXNXvXdXNXvXxXNXvXdXNXvXdX",
"dXvXNXdXvXNXdXvXNXdXvXNXNXy >XrX,XVXNXNXmXNXnXNX<X. ,XNX#X+X0XNXNX^ d %.x.P I iXqXqXNXbXmXmXdXNXNXdXmXNXdXmXNXdXBXNXdXbXNXdXmXNX",
"mXvXvXmXvXvXmXvXvXBXbXxXNX] +XNXNXNXmXmXNXNXnX`.. . ] NXNXfX=X+X,X*X# ^ ^ ).O.6 < < Z 0XMXvXmXvXvXmXvXvXBXvXvXmXvXvXmXvXvXvXvXvX",
"NXvXzXNXmXjXNXmXdXNXmXdXNX>X5 vXNXNXNXNXnX7Xj g }.% ' NXNXNXnXnX .. qXBXNX| > L y.u.Z w fXvXMXvXvXmXvXvXNXvXvXNXvXvXNXvXvXNXvXvX",
"dXvXNXdXvXNXdXvXNXdXvXNXdXNX@Xe #X5X;X`.j s -.[..XR j >XdXNX:Xj g t D 4 7 ; p.8.2.u.A X #XNXsXNXNXfXmXNXdXmXNXdXBXNXdXvXNXdXvXNX",
"NXmXvXNXmXjXmXBXvXmXvXvXmXNXNX8Xr X 7 X Q {.E.n.R.$.+.=Xe t 0 (.}.+ M G + y.<.e.K - Z #X5 9XNXcXvXNXvXvXmXvXjXNXvXvXNXvXvXmXvXvX",
"NXvXxXmXmXvXmXbXvXBXBXxXNX5XA C 2 V h.< k.Q.n.S.^.Y , ..# j XXoX, M d.K N w.w.G O @XqXo.e X.NXgXvXBXvXvXmXvXvXmXvXvXmXvXvXmXBXvX",
"dXvXNXdXvXNXdXvXNXdXvXNX..X C L G F e.B , [./.^.l.% pXNXyXz P U 1 p.3.3.1.w.J X &X8Xy aXo.X.NXBXmXdXNXNXdXmXNXdXmXNXdXbXNXdXbXNX",
"NXvXxXNXBXgXNXmXdXBXNXo.e 7 p.6.8.6.4.9.x 8 ;.Q & :XnXxXNXkX+.O q.6.3.3.4.w.O OX5Xy NXNX5 rXNXxXvXNXjXjXNXvXvXNXvXjXNXvXjXNXvXdX",
"mXBXvXBXvXvXvXvXvXBXNXi eXA F 6.3.3.5.4.i.G 8 , ~ NXxXvXvXNX5X4 p.3.5.3.i.< } aXy mXNX] ..NXvXvXvXmXvXvXvXvXvXBXvXBXBXvXvXBXvXvX",
"dXvXNXdXvXNXzXvXNXzXBXu sXOXx t.3.5.5.3.<.K | 7 S bXNXvXdXNX,XO L t.3.9.J 2 MX[ 9XNX+Xe NXNXfXNXNXdXNXNXfXmXNXdXmXNXdXmXNXdXmXNX",
"NXBXdXNXmXdXNXbXdXmXNX] o.MX; _ 6.5.5.3.4.B - C VXNXdXmXNXdXNXf.- b 8.i.2 &X,X[ NX@X@ vXBXdXNXvXvXNXvXxXNXvXdXNXvXdXNXvXdXNXvXdX",
"vXBXBXvXvXmXvXbXBXvXMXfX@ 8X| n t.5.5.5.5.9.F 6 uXNXBXvXvXmXvXNXhX6 G u.: 9X` ` y u dXNXvXbXvXmXvXvXBXBXvXbXbXvXBXmXvXvXmXvXvXmX",
"xXvXNXjXvXNXvXvXNXxXcXNX9X@ #X4 q.4.3.5.5.3.i.n D NXmXvXjXNXvXdXNX5X- > ) o.,X9X  NXNXdXNXmXhXmXmXdXmXNXdXBXNXdXmXNXjXvXNXjXmXNX",
"NXBXdXNXvXdXNXmXdXNXNXsXNX#X] f.< a.4.3.5.3.4.2.4 fXcXvXNXdXmXNXsXNXqXr e ` #Xe 0XNXdXNXzXxXNXjXxXNXvXjXNXvXdXNXvXdXNXvXdXNXvXdX",
"jXbXmXvXvXmXvXvXmXvXvXmXvXvXe 8XA b a.4.3.3.1.y.> rXNXvXvXNXvXdXNXvXNXNX+Xe y ,XNXBXBXxXmXBXvXmXmXvXvXmXjXBXNXvXbXNXvXmXmXjXvXNX",
"vXvXmXvXvXNXvXvXNXvXvXmXxXNX-XS bXw n p.9.9.d.V r MXBXvXjXmXvXvXmXBXdXmXNXmXNXNXzXMXmXvXmXbXxXvXBXjXvXmXzXvXmXvXBXmXjXvXmXvXbXNX",
"NXvXdXNXBXdXNXBXdXNXBXdXNXBXrXi ` 0XA ; V G b - 8XNXdXmXNXdXmXNXdXvXNXdXvXNXdXvXNXdXvXNXvXxXNXvXvXNXvXzXNXvXdXNXvXdXNXvXdXNXvXdX",
"dXvXNXxXvXNXvXvXNXxXvXNXvXaX` @   X i + 5 A | uXNXdXNXvXdXNXvXjXNXvXvXNXvXxXNXmXdXNXmXdXNXmXdXmXmXdXmXNXdXNXNXdXmXNXdXBXNXxXvXNX",
"vXBXBXvXvXbXvXvXBXvXvXBXvXBXBXsXeXeXeXcXBXNXNXNXvXbXmXvXvXvXmXvXmXvXvXmXvXvXmXvXvXvXBXvXBXBXvXvXbXvXvXBXvXvXbXvXbXBXvXmXmXvXBXmX",
"NXvXdXNXBXdXNXmXdXNXBXdXNXBXdXNXNXvXNXNXdXBXmXdXmXNXdXmXNXdXmXNXdXvXNXdXvXNXjXvXNXvXvXNXjXjXNXvXvXNXvXdXNXvXjXNXvXdXNXvXxXNXvXdX",
"dXmXNXdXvXNXvXvXNXzXvXNXxXvXNXxXdXNXvXzXNXxXvXNXvXcXNXvXvXNXvXdXNXbXgXNXBXdXNXmXdXNXmXdXmXNXdXNXmXdXmXNXdXmXNXxXmXNXdXmXNXdXBXNX"
};
