/* XPM */
static char *_9496c6bcfe643c7fcaca93909ff197bj9NHbLbHRQCaCMRf[] = {
/* columns rows colors chars-per-pixel */
"64 64 238 2 ",
"   c #020100",
".  c #0C0100",
"X  c #040C04",
"o  c #170600",
"O  c #001300",
"+  c #051C04",
"@  c #1D1200",
"#  c #15100C",
"$  c #1A1A19",
"%  c #230E00",
"&  c #231200",
"*  c #2D1B00",
"=  c #291C07",
"-  c #311C00",
";  c #002401",
":  c #002B04",
">  c #02250C",
",  c #002B0B",
"<  c #1A2A00",
"1  c #003303",
"2  c #003C03",
"3  c #00320A",
"4  c #072D13",
"5  c #093614",
"6  c #13361A",
"7  c #18300D",
"8  c #3C2300",
"9  c #362604",
"0  c #3F3009",
"q  c #1E1E20",
"w  c #1A3A23",
"e  c #232423",
"r  c #2A2A2A",
"t  c #3D3528",
"y  c #3B3B3B",
"u  c #363734",
"i  c #293A2E",
"p  c #421A00",
"a  c #442500",
"s  c #432D02",
"d  c #4A2B02",
"f  c #522C00",
"g  c #4B3302",
"h  c #48370C",
"j  c #563B04",
"k  c #483A16",
"l  c #663900",
"z  c #713C00",
"x  c #463D29",
"c  c #014D02",
"v  c #004105",
"b  c #005408",
"n  c #014B14",
"m  c #044618",
"M  c #04591C",
"N  c #124F14",
"B  c #006113",
"V  c #00681A",
"C  c #046A13",
"Z  c #0B5822",
"A  c #1A4E29",
"S  c #23462D",
"D  c #294C33",
"F  c #38483C",
"G  c #315137",
"H  c #066925",
"J  c #13682A",
"K  c #047527",
"L  c #1A6A32",
"P  c #147933",
"I  c #23773B",
"U  c #584418",
"Y  c #56460D",
"T  c #644300",
"R  c #694A05",
"E  c #764C00",
"W  c #775504",
"Q  c #705513",
"!  c #79671A",
"~  c #594926",
"^  c #4C4637",
"/  c #655739",
"(  c #6D5726",
")  c #76633B",
"_  c #3E5545",
"`  c #287D42",
"'  c #434343",
"]  c #484744",
"[  c #4A554D",
"{  c #5D5648",
"}  c #4F4F51",
"|  c #5A5A58",
" . c #45624C",
".. c #4B6454",
"X. c #517055",
"o. c #726D54",
"O. c #676766",
"+. c #787877",
"@. c #657C6A",
"#. c #6A5F43",
"$. c #815A04",
"%. c #8D5400",
"&. c #956A04",
"*. c #84641B",
"=. c #936D13",
"-. c #A86E00",
";. c #B87B00",
":. c #A47C15",
">. c #A87605",
",. c #917227",
"<. c #A37B24",
"1. c #8A7852",
"2. c #827969",
"3. c #098E34",
"4. c #17883B",
"5. c #039533",
"6. c #099235",
"7. c #009833",
"8. c #0C9539",
"9. c #0E993B",
"0. c #13933C",
"q. c #15983D",
"w. c #06822E",
"e. c #20823B",
"r. c #1C8D41",
"t. c #1B9343",
"y. c #179842",
"u. c #288946",
"i. c #219445",
"p. c #2B924B",
"a. c #28984A",
"s. c #379353",
"d. c #35864D",
"f. c #75897A",
"g. c #698070",
"h. c #43985F",
"j. c #B98C1E",
"k. c #8E8623",
"l. c #A98636",
"z. c #B28E34",
"x. c #AC8525",
"c. c #C58B04",
"v. c #D69806",
"b. c #DBA417",
"n. c #EBAC0B",
"m. c #F4AE04",
"M. c #F7AF09",
"N. c #F6B001",
"B. c #FDB102",
"V. c #F4B00A",
"C. c #FBB40B",
"Z. c #ECAC14",
"A. c #F2AF11",
"S. c #F5B314",
"D. c #F5B51B",
"F. c #FAB719",
"G. c #CA9B28",
"H. c #CB9C31",
"J. c #DAA939",
"K. c #D9A72A",
"L. c #E2AE2C",
"P. c #EFB829",
"I. c #F6BA25",
"U. c #F5BC2C",
"Y. c #F6BA27",
"T. c #ECB736",
"R. c #F4BC34",
"E. c #F3BC39",
"W. c #E4AE30",
"Q. c #F7C238",
"!. c #EAC030",
"~. c #8D8368",
"^. c #968C77",
"/. c #918973",
"(. c #A99863",
"). c #D4AF49",
"_. c #EABB46",
"`. c #F0BD42",
"'. c #CCAE67",
"]. c #E0BB62",
"[. c #F4C345",
"{. c #ECC052",
"}. c #ECC96B",
"|. c #D6C364",
" X c #7C9284",
".X c #898989",
"XX c #969896",
"oX c #8C978A",
"OX c #A79E8B",
"+X c #97A99C",
"@X c #A8A293",
"#X c #9F9FA1",
"$X c #A7A7A7",
"%X c #A9B4AB",
"&X c #BBB3A5",
"*X c #BBBDBB",
"=X c #B6B7B4",
"-X c #B1B5AC",
";X c #9EB0A0",
":X c #C5BBA5",
">X c #C6BFB5",
",X c #CCBD9E",
"<X c #BAC8BD",
"1X c #C8C3B7",
"2X c #CAC2A9",
"3X c #C0BEC1",
"4X c #BECCC1",
"5X c #CCCBCB",
"6X c #C4C9C4",
"7X c #CAD6CC",
"8X c #DBD5CA",
"9X c #DCDCDB",
"0X c #D4D6D3",
"qX c #D1D4C9",
"wX c #D7E6D6",
"eX c #E8E3D7",
"rX c #F3EBD9",
"tX c #EEE3CF",
"yX c #DFDDE0",
"uX c #E5E5E5",
"iX c #ECECEC",
"pX c #E7E9E6",
"aX c #F2EEE8",
"sX c #EBF2EC",
"dX c #F2F1EE",
"fX c #FFFCEC",
"gX c #FAF4E8",
"hX c #EFEFF1",
"jX c #F1EFF0",
"kX c #EFF4F0",
"lX c #F4F4F4",
"zX c #F5FAF7",
"xX c #FDFCF5",
"cX c #F7F7F9",
"vX c #F6FCF9",
"bX c #FCFCFC",
"nX c #F8F6F7",
"mX c #E1E5DE",
/* pixels */
"bXnXiXbXnXiXbXbXiXbXbXiXbXbXpXbXbXiXnXbXiXnXbXiXnXbXiXcXbXiXlXbXiXlXbXiXlXbXiXlXbXiXlXbXlXiXbXlXiXbXlXiXbXlXiXbXlXiXbXlXiXbXlXiX",
"lXlXnXlXlXnXlXlXzXlXlXnXlXlXnXlXlXnXzXlXnXlXlXlXlXnXnXlXlXcXlXlXnXnXlXnXcXlXnXlXlXlXlXlXnXlXlXlXnXlXcXlXlXlXcXlXzXnXlXcXnXlXlXcX",
"iXlXbXlXlXbXiXlXbXjXlXbXhXlXbXlXhXbXlXhXbXlXiXbXbX9XhXbXlXbXlXiXbXzXiXbXnXiXbXcXsXbXbXiXbXzXiXnXbXiXnXbXiXbXbXiXnXbXiXnXbXjXzXbX",
"bXlXiXbXcXiXbXcXiXbXnXiXbXcXpXbXbXpXbXbXiXzXbX3X] u r +.bXiXnXbXiXlXbXiXlXbXhXcXbXiXlXbXhXlXbXlXiXbXlXhXbXlXiXbXlXiXbXlXiXbXlXiX",
"lXcXnXlXlXbXjXlXnXlXlXbXlXlXcXlXlXbXlXlXnXbXXX$ $XlXnXy +.bXiXlXxXlXlXbXcXiXnXnXhXnXzXdXnXnXlXnXnXlXbXzXdXlXcXlXzXnXdXnXnXhXlXbX",
"hXcXnXlXzXnXlXlXcXlXlXcXlXlXcXlXlXnXlXiXbX$X$ iXbXcXbX9Xr bXbXdXnXlXhXnXzXlXbXcXlXnXnXdXbXzXhXnXnXhXcXnXlXnXbXhXnXnXlXzXbXlXlXbX",
"bXlXiXbXlXiXbXvXiXbXnXiXbXnXiXbXnXiXcXbXuX$ 5XbXnXbXbXbXt t ^.bXdXlXbXhXlXbXiXlXbXjXlXbXiXdXbXdXhXbXlXiXbXlXiXbXlXiXbXlXiXbXlXiX",
"hXlXbXlXlXbXhXcXbXhXlXbXlXlXbXlXlXbXlXcX+.O.bXbXbXbXbXbX~ / U 9 aXbXiXbXcXhXbXcXiXnXcXiXbXnXhXnXxXiXcXbXiXnXbXiXnXbXhXnXbXhXlXbX",
"lXlXnXlXlXcXlXlXcXzXlXnXlXzXcXlXlXnXlXlXr 9XjXiXbXbXbXxX~ l.}.R ~ bXlXnXnXlXcXlXlXzXlXlXzXlXdXnXlXlXnXnXlXlXcXlXlXnXlXzXnXlXnXnX",
"bXcXiXbXzXiXbXcXiXbXnXiXbXbXiXnXbXpXbX5Xy lXq | bXbXbXfXj x.U.T.- 1XbXiXlXbXhXlXbXhXlXbXhXlXbXlXlXbXlXiXbXlXhXbXlXiXbXlXiXbXlXiX",
"iXlXbXhXlXbXiXlXbXhXlXbXiXlXbXlXjXbXbXXXO.=Xy $X0XbXbXfXd H.D.R.W o.xXbXlXiXbXzXiXbXnXiXbXnXiXnXbXiXbXbXiXnXbXiXnXbXiXcXbXiXlXbX",
"cXnXcXnXzXlXnXzXlXnXlXlXlXlXlXlXlXjXbX$XO.5X  q iXbXbXtXa J.S.I.<.U fXlXzXcXlXzXlXlXlXzXlXlXnXlXlXlXlXlXzXlXlXcXzXlXnXlXlXnXcXlX",
"bXlXiXbXcXiXbXnXiXbXnXiXbXnXiXnXbXjXqX{ ] bXy O.bXlXbX:Xf T.S.D.H.8 fXlXlXbXhXlXbXlXlXbXlXlXbXlXlXbXlXhXbXlXiXbXlXdXbXlXhXbXlXhX",
"iXlXbXiXlXbXiXlXbXiXlXbXlXiXbXfX^.k d U 9 gXbXbXxXxXfX~.E R.V.S.T.l U fXbXuXbXcXiXbXcXiXbXnXiXnXnXiXbXbXiXbXbXiXnXbXiXzXbXiXnXbX",
"bXlXlXnXnXlXnXzXlXnXzXdXlXbX8Xs f z.).}.s OXxX2X2.) 1.a -.F.M.B.S.P.E 9 rXbXhXlXnXlXlXcXlXlXcXlXlXbXlXlXnXlXlXnXlXlXbXlXlXnXlXlX",
"bXlXlXbXlXlXnXzXhXbXnXaXbX2X% ,.).%.z W.z.8 ! j *.<.:.G.b.C.B.B.B.S.[.$.h xXlXlXbXlXlXcXlXlXbXlXhXnXlXdXbXlXlXbXlXiXbXlXhXbXlXhX",
"iXlXbXiXlXbXiXlXbXiXdXbX8X% j.Q.>.>.-.Z.W.%.;.E.U.I.I.F.C.B.B.B.B.B.A.`.d ~.bXnXiXbXnXiXbXnXiXnXbXiXcXbXiXnXbXiXnXbXiXnXbXiXzXbX",
"bXlXiXbXcXhXbXnXhXbXzXgXs =.Q.V.n.A.S.F.A.F.F.M.m.B.B.B.B.B.B.B.B.B.m.Y.z.h gXjXbXhXlXbXlXlXbXlXlXbXlXlXbXlXjXbXlXlXbXlXhXbXlXiX",
"nXzXlXnXlXlXnXzXlXlXbX^.d `.S.B.C.M.B.B.B.m.B.B.B.B.B.B.B.B.B.B.B.B.B.D.J.a tXbXcXlXlXnXlXlXnXlXlXcXlXlXbXlXlXnXlXlXnXlXlXcXnXlX",
"iXlXbXiXlXbXiXlXbXiXbXU :.I.V.B.B.B.B.C.C.B.B.B.B.B.B.B.B.B.B.B.B.B.B.A.).a rXbXiXbXnXpXbXbXiXbXbXiXbXnXiXnXbXiXnXbXiXlXbXiXcXbX",
"bXnXiXbXnXiXbXnXiXbXeX9 K.C.B.B.B.B.B.m.v.F.B.B.B.B.B.B.B.B.B.B.B.B.B.I.z.g gXlXbXhXlXbXlXjXbXlXhXbXlXiXbXlXhXbXlXiXbXlXhXbXlXiX",
"lXzXlXlXzXlXnXlXlXbX>Xa R.B.B.B.B.B.C.c.%.I.M.B.B.B.B.B.B.B.B.B.B.B.B.R.R o.xXjXlXcXzXlXlXzXlXlXlXzXcXlXlXlXnXlXnXnXlXzXzXlXlXzX",
"iXlXbXdXlXbXhXlXbXbX:Xd P.B.B.B.B.B.F.c.z R.A.B.B.B.B.B.B.B.B.B.B.M.S.K.= 8XbXlXiXnXnXiXbXnXiXbXbXiXnXbXiXnXbXiXcXbXhXnXbXiXnXbX",
"bXnXiXbXnXiXbXnXiXbX8X- T.M.B.B.B.B.F.v.p J.D.B.B.B.B.B.B.B.B.B.B.A.`.f 1.bXiXdXbXiXdXbXiXiXbXiXhXbXlXiXbXlXhXbXlXiXbXlXiXbXlXiX",
"lXlXnXlXlXcXlXlXnXlXzX0 j.D.M.B.B.m.M.R.8 T U.B.B.B.B.B.B.B.B.B.M.Q.$.~ xXlXbXbXbXbXbXnXbXbXbXbXnXsXnXnXlXnXzXhXnXnXlXlXnXlXlXbX",
"lXlXbXiXlXbXlXlXbXiXbX~.j [.A.B.B.M.I.&.f W c.C.B.B.B.B.B.B.B.S.R.&.. x 2.hXpX%Xg. .G D F ..g.<XbXbXzXnXiXnXnXlXzXbXhXlXbXhXzXbX",
"bXzXiXbXnXiXbXcXiXbXbXaX0 =.Q.V.m.F.G.p K.D.n.m.N.N.B.B.B.B.M.T.W @ oX5XO.$ 5 3 n H H J 1 Z n 1 6 ;XbXdXbXlXiXbXlXiXbXcXiXbXlXiX",
"lXlXnXlXlXbXlXlXbXdXdXbX8X* W T.Y.E.T E [.U.Y.U.Q.U.I.S.C.B.I.$.h xXbXbXbXf.: s.i.q.q.3.b p.i.u.L :  .vXhXcXbXiXzXbXjXnXbXiXlXbX",
"lXlXnXlXlXbXlXlXnXlXzXnXbXtXU 8 ,.).* - g R Q ! W j T W.S.M.I.%.& O.lXbXbXvX5 L 0.3.8.K b t.3.6.0.p.1 [ bXlXnXlXlXnXlXzXnXlXcXcX",
"bXlXiXbXzXiXbXnXiXbXnXiXnXbXxX&X( - = 8X&X^.~.1.~.,Xh W R.P._.z..   | bXnXbX .M t.6.y.V H y.5.7.7.6.p.: +XbXiXbXlXiXbXlXiXbXcXiX",
"iXlXbXhXlXbXlXlXbXjXlXbXlXlXnXbXnXrX0XxXbXbXxXxXxX@Xo 9 ].).! % X 5Xy 5XbXbXf.5 s.3.H 1 K q.5.5.7.5.0.J w bXbXiXnXbXiXnXbXiXcXbX",
"lXcXnXcXlXlXlXlXlXzXlXlXlXzXlXlXlXnXbXlXlXlXdXbX$Xr $ . * o . x eX$X  #XbXbX+X: H c M K c 3.8.5.7.7.7.4.> 0XbXlXzXcXnXlXnXzXlXcX",
"bXnXiXbXnXiXbXnXiXbXnXiXbXnXiXnXbXiXnXbXiXnXnXbXO.+.*Xx ^ /.8XbX3X    +.bXbX%XO H 3.9.q.H c 9.5.5.7.7.t., %XbXbXlXiXbXlXjXbXlXiX",
"iXlXbXiXlXbXiXlXbXhXlXbXhXlXbXhXhXbXdXhXbXlXiXbX0Xq $XnXbXbXbXbX+.  = { xXbX-X3 a.7.7.7.y.B B q.6.5.5.t., -XbXpXnXbXiXzXbXiXnXbX",
"nXcXlXnXzXlXnXzXlXzXnXlXnXzXlXzXzXlXzXnXlXnXcXiXbX$X$ ^ ^ 1XbXqX| & (.f fXbX4X> r.7.7.7.5.q.c H t.q.q.p.> <XbXlXzXlXnXlXlXnXlXlX",
"bXlXhXbXnXiXbXnXiXbXnXiXbXnXhXxXnXiXnXbXhXnXbXgXOXx o k ,.- ~ ,X1.Y ].- rXbX0X, 4.7.7.7.7.6.4.v b B V Z 4 uXlXbXlXhXbXlXlXbXlXjX",
"iXlXbXiXlXbXiXlXbXiXlXbXiXhXbXhXdXbXlXiXbXhXbX2.a :.>.W.Q.G.d R - =.{.d 2XbXbX6 P 8.5.5.7.6.r.c K K K 2 G bXbXiXnXbXiXnXbXiXlXbX",
"bXlXlXbXlXlXcXnXdXnXlXlXbXbXhXnXnXhXbXnXiXcXbX9 H.E.F.C.m.S.W.G.L.K.`.j ^.bXbX@.1 a.3.7.7.9.K b y.9.s.3 +XbXiXbXlXhXbXlXhXbXlXhX",
"nXnXlXlXlXlXnXzXlXnXcXlXnXnXlXnXcXlXzXnXlXlXbXh -.F.M.M.B.V.C.D.S.A.R.:./ bXbXvXS m i.5.7.9.M V 9.0.L 4 kXlXlXnXcXlXcXlXlXxXlXlX",
"iXlXbXiXlXbXiXlXbXiXlXbXiXlXbXhXiXbXlXiXbXbX=X9 K.S.B.B.B.B.B.V.I.R._.T @ bXbXbXvXS 2 p.0.0.b P 8.t.: oXbXlXbXiXnXbXiXnXbXiXlXbX",
"bXcXhXbXnXiXbXnXiXbXbXiXbXnXiXbXbXiXnXbXiXbX2.Q [.N.N.B.B.C.S.L.:.Q * o.x =XbXcXbXbX_ : u.4.c 4.u.H w lXbXlXdXbXlXhXbXlXlXbXlXiX",
"lXzXlXnXzXlXzXnXlXlXlXlXzXnXlXlXlXlXzXlXlXbX>X@ x.R.S.V.V.Z.`.d j /.8XbXXXr bXbXbXbXbXf.: 1 M s.u.+ X.bXlXlXlXzXlXlXlXnXlXlXnXlX",
"iXlXbXiXlXbXiXlXbXiXlXbXjXlXbXhXlXbXlXhXbXhXbX>X* W [.D.Q._.T U fXxXbX=XXX' .XbXlXbXbXbX7X .4 4 + + [ bXiXlXbXiXnXbXiXnXbXiXlXbX",
"bXnXiXbXnXiXbXnXiXbXzXiXbXnXiXbXbXiXnXbXlXvX7X7XwXY T x.&.g / bXbX5X.XXXbX=X  -XbXbXbXbXbXbXuX=X0X3Xy bXbXlXhXbXlXiXbXlXiXbXlXiX",
"lXlXzXlXlXnXlXzXbXlXlXcXlXlXnXlXlXcXkXvX7XS 1 : 6 @.~./ / @ #X=X.X$XpXbXbX| . . /.bXbXbXcXzXbXbXcXXX| cXiXnXnXlXlXnXlXlXnXlXlXnX",
"iXlXbXhXlXbXlXlXbXhXlXbXhXlXbXhXlXbXvXpX6 S d.u.I 3 ..vXvX7X  o.xXbXbXbXbX{ % '.g k 2XxXbXbXbXbXcXq 3XbXiXzXbXhXnXbXiXnXbXhXnXbX",
"bXnXiXbXcXiXbXnXiXbXnXpXbXbXiXbXcXuXbXXXO G u.r.0.u.3 6 4 G h h k :XxXpX*Xx W [.T.>.a U /.%X*XXXq .XbXiXbXlXhXbXlXiXbXlXiXbXzXiX",
"lXlXnXlXlXnXlXlXbXhXlXbXlXlXnXlXlXbX5X$ XXS O P 0.4.u.O L N > '.1.a t r #X#.$.U.Z.U._.! O 6 O i <XbXbXlXhXcXbXhXnXnXlXnXnXlXlXbX",
"lXlXnXlXlXbXlXlXbXlXlXbXlXlXbXlXlXbXO.e +.0X XO J r.r.B w.a.N < |.}.k # | @ R E.Z.n.Q.x.2 h.m 3 A D 6XbXhXcXnXlXcXnXlXnXnXlXlXbX",
"bXlXiXbXnXiXbXnXiXbXnXiXbXnXiXbXnXbX+.+.9Xu 3X+XO L r.6.5.3.p.v R R x yXbXrX* z.!.!.!.< C t.H J I Z O O.bXlXiXbXlXhXbXlXiXbXlXpX",
"hXlXbXhXlXbXiXlXbXhXlXbXhXlXbXlXjXbX0X$ bXbXy <X XO r.3.5.5.8.I O #.fXbXhXbX&X* ! k.< b q.6.8.0.0.u.6 e +.bXnXhXzXbXiXlXbXiXzXbX",
"lXlXnXlXlXnXlXzXzXlXlXlXlXlXlXlXnXlXbXO.| bXcXy yX..2 i.5.7.6.p., <XbXdXlXlXbX^ < 2 J e.6.5.5.7.9.H D 9Xu nXzXlXlXnXlXzXnXlXcXcX",
"bXzXiXbXnXiXbXnXiXbXnXiXbXbXiXnXcXiXbXbXr .XbX5X} vX, L y.5.0.` O *XbXiXlXbXnXF w ` I 4.6.7.7.5.i.v  XuXu vXhXbXlXiXbXlXiXbXlXiX",
"iXlXbXiXlXbXiXlXbXiXlXbXhXdXbXhXlXbXiXlXhXq .XbX} =X+X3 t.y.n ; f.bXiXbXcXiXbXpXS + C 6.5.7.7.8.e.; vX+.| bXnXiXnXbXiXnXbXiXnXbX",
"nXlXlXnXnXlXzXlXlXzXzXlXzXcXlXnXcXlXlXlXcXiXu ' ' ' 6X> d.J 4 sXbXlXcXlXlXzXbXwX5 V q.5.7.7.7.t.m X.6X$ pXbXkXnXcXlXzXlXlXnXcXlX",
"bXnXhXbXnXhXbXnXiXbXnXiXbXnXiXbXcXhXnXbXiXbXbX  5X=X+._ , ; 4XbXiXcXbXhXlXbXbXG n i.6.7.7.7.8.4., XXq 5XbXhXhXbXlXhXbXlXlXbXlXiX",
"iXlXbXiXlXbXiXlXbXiXlXbXiXhXbXlXhXbXlXiXbXiXbX6Xe .X] e i 7XbXuXbXlXiXbXzXlXpX, I 6.7.7.7.6.a.1 f.} #XbXuXnXbXiXbXbXiXlXbXiXlXbX",
"nXlXlXnXlXlXnXzXjXbXnXiXnXbXhXcXnXiXzXnXlXnXcXbX3X' e XXbXnXlXbXlXlXnXlXlXbX0X> r.8.5.5.6.a.n D <Xr zXdXnXlXlXbXlXlXbXlXlXbXlXlX",
"bXcXlXbXlXlXbXnXlXnXnXlXnXzXdXcXnXlXzXbXlXcXnXhXbXbXlXbXnXlXlXbXhXlXbXdXcXcXnXi Z a.0.0.u.m w zXF $XbXhXbXlXlXnXlXlXcXlXdXnXlXlX",
"iXlXbXiXlXbXiXlXbXiXlXbXiXlXbXhXdXbXhXhXbXlXiXbXlXiXbXlXiXbXlXiXbXcXiXbXcXpXbX4X; m J H : D 6X] r 0XzXbXiXcXbXiXcXbXiXnXbXiXlXbX",
"bXnXiXbXnXiXbXnXiXbXbXiXbXnXhXbXnXiXnXbXiXnXbXiXcXbXiXnXbXlXlXbXiXlXbXhXlXbXiXbXwXX.D q + i #   $ ] yXlXbXlXlXbXlXlXbXlXhXbXlXiX",
"zXlXlXnXcXlXzXlXlXnXlXlXnXlXlXzXzXlXcXnXlXzXnXlXlXzXlXlXnXlXlXnXlXzXnXlXzXlXlXlXbXbXbXnXjX9X0XyXuXbXnXlXnXlXlXlXlXlXnXlXlXzXcXcX",
"iXlXbXiXlXbXiXlXbXlXlXbXiXlXbXdXlXbXlXhXbXlXhXbXlXlXbXlXiXbXzXiXbXnXhXbXnXiXbXnXiXnXnXhXbXbXlXbXbXiXnXbXiXnXbXiXzXbXiXlXbXiXlXbX",
"bXnXhXbXnXiXbXcXiXbXnXiXnXbXiXnXnXiXnXbXiXnXbXiXlXbXiXnXbXiXnXbXhXlXbXhXlXbXhXlXbXjXjXbXjXjXbXiXlXbXlXjXbXlXhXbXlXjXbXlXlXbXlXiX"
};
