/* XPM */
static char *_ebbedaa5acf42e48fe648a1ec06596bdU2lI1cwFMuEjmWT[] = {
/* columns rows colors chars-per-pixel */
"64 64 253 2 ",
"   c None",
".  c #160C0B",
"X  c #291B19",
"o  c #371412",
"O  c #330706",
"+  c #39231A",
"@  c #382727",
"#  c #2D2F39",
"$  c #3E1F20",
"%  c #531415",
"&  c #6A0304",
"*  c #750704",
"=  c #761511",
"-  c #4A2717",
";  c #572B17",
":  c #5B3018",
">  c #6B3314",
",  c #673418",
"<  c #793A18",
"1  c #612E12",
"2  c #511A29",
"3  c #482827",
"4  c #52322D",
"5  c #663726",
"6  c #743729",
"7  c #6E0D27",
"8  c #7E421F",
"9  c #5A403A",
"0  c #78412D",
"q  c #774636",
"w  c #6D4336",
"e  c #051B5B",
"r  c #12225D",
"t  c #332B56",
"y  c #061C64",
"u  c #071D6C",
"i  c #081C6B",
"p  c #061D77",
"a  c #0A2168",
"s  c #152869",
"d  c #0B2479",
"f  c #192E74",
"g  c #312E6C",
"h  c #513253",
"j  c #742C52",
"k  c #542C6A",
"l  c #74316A",
"z  c #59575C",
"x  c #504B4B",
"c  c #6C4D4F",
"v  c #525A6D",
"b  c #6D5E61",
"n  c #6D676A",
"m  c #787678",
"M  c #716D70",
"N  c #616367",
"B  c #860402",
"V  c #9A0402",
"C  c #9A150D",
"Z  c #891916",
"A  c #951513",
"S  c #A70302",
"D  c #B70201",
"F  c #B01613",
"G  c #912A1C",
"H  c #B5271C",
"J  c #A32C08",
"K  c #8D1133",
"L  c #B4172D",
"P  c #902F2A",
"I  c #B0302C",
"U  c #CB0101",
"Y  c #C60203",
"T  c #D40100",
"R  c #DC0101",
"E  c #D40A09",
"W  c #CA1717",
"Q  c #DA1616",
"!  c #D10E10",
"~  c #E30200",
"^  c #EA0300",
"/  c #EC0A05",
"(  c #F40400",
")  c #FF0101",
"_  c #FE0B01",
"`  c #FE0B0B",
"'  c #F70A06",
"]  c #E9110D",
"[  c #FB140B",
"{  c #FD1312",
"}  c #F81A1A",
"|  c #EB1114",
" . c #D3231E",
".. c #FD241C",
"X. c #F02A16",
"o. c #D21926",
"O. c #F01A24",
"+. c #D82927",
"@. c #D03135",
"#. c #FF2523",
"$. c #FD2B2B",
"%. c #F42929",
"&. c #FC322B",
"*. c #FC3937",
"=. c #ED3131",
"-. c #86411D",
";. c #8A4726",
":. c #954728",
">. c #88553C",
",. c #98563B",
"<. c #8F4C33",
"1. c #A85339",
"2. c #BA6435",
"3. c #AE623B",
"4. c #BF6116",
"5. c #D54435",
"6. c #F44839",
"7. c #C86A39",
"8. c #922649",
"9. c #B2264C",
"0. c #A22D5C",
"q. c #D23151",
"w. c #C32853",
"e. c #88594B",
"r. c #985B48",
"t. c #8E5755",
"y. c #A96545",
"u. c #B76C48",
"i. c #BB7657",
"p. c #B66D54",
"a. c #917477",
"s. c #AE726E",
"d. c #A05A69",
"f. c #D1524F",
"g. c #FC4848",
"h. c #F9544A",
"j. c #FA5656",
"k. c #EA5352",
"l. c #C77A59",
"z. c #D17054",
"x. c #F6694F",
"c. c #D17071",
"v. c #FB6767",
"b. c #EE736F",
"n. c #E15868",
"m. c #BAA024",
"M. c #F0DE1C",
"N. c #8E8177",
"B. c #AF8B7D",
"V. c #8E9160",
"C. c #D5845B",
"Z. c #CA8259",
"A. c #DA8965",
"S. c #D29073",
"D. c #EB9868",
"F. c #EF9570",
"G. c #FCA778",
"H. c #F8AA75",
"J. c #DDBD14",
"K. c #061F86",
"L. c #0B2988",
"P. c #0A2894",
"I. c #0E3199",
"U. c #13339D",
"Y. c #16308B",
"T. c #30388B",
"R. c #1135A4",
"E. c #1239AD",
"W. c #1637A8",
"Q. c #133BB4",
"!. c #143EBB",
"~. c #1A3AB7",
"^. c #0F2EA4",
"/. c #2F3CAB",
"(. c #4D3590",
"). c #63318F",
"_. c #30498E",
"`. c #1843B7",
"'. c #2F46B0",
"]. c #2964A0",
"[. c #737988",
"{. c #4850AC",
"}. c #5F71AD",
"|. c #133EC2",
" X c #1541C3",
".X c #1644CA",
"XX c #1946CC",
"oX c #1B45C8",
"OX c #1C49D4",
"+X c #1C4BDA",
"@X c #1846D2",
"#X c #224EDB",
"$X c #2C4CCE",
"%X c #1E4EE4",
"&X c #1E51E6",
"*X c #2452E4",
"=X c #2354EB",
"-X c #355BE6",
";X c #2253EA",
":X c #4F5CCF",
">X c #546ADC",
",X c #923785",
"<X c #947B82",
"1X c #8956AB",
"2X c #A35190",
"3X c #F27F83",
"4X c #8773D0",
"5X c #7B91B3",
"6X c #878688",
"7X c #868792",
"8X c #969599",
"9X c #958B8D",
"0X c #AF8988",
"qX c #8F9AB0",
"wX c #96A4B5",
"eX c #A6A6A9",
"rX c #ABAAB5",
"tX c #B5B4B6",
"yX c #B2AFB2",
"uX c #A3A19F",
"iX c #D48F8E",
"pX c #F79897",
"aX c #EE9492",
"sX c #FDB988",
"dX c #F6AD8A",
"fX c #D0B2B3",
"gX c #F0B2B4",
"hX c #D6AA9A",
"jX c #FDC99A",
"kX c #FFCD97",
"lX c #F7D0AD",
"zX c #AEB8CF",
"xX c #8CA6C6",
"cX c #C6BCC1",
"vX c #EFBFC0",
"bX c #BBC5D5",
"nX c #C7C5C9",
"mX c #D9C9C7",
"MX c #CDCCD2",
"NX c #D9D7D9",
"BX c #D0D0CF",
"VX c #F0D1D1",
"CX c #D6DAE6",
"ZX c #EBDFE2",
"AX c #DDE1ED",
"SX c #DAE4F5",
"DX c #E7E6E9",
"FX c #E8EBF6",
"GX c #EDF3FD",
"HX c #EEF6FA",
"JX c #FBFDFF",
"KX c #F6F6FA",
"LX c #F5E8EB",
/* pixels */
"                                                                                                                                ",
"                                                                                                                                ",
"                                                                    ) ) ` { { ` _ ) )                                           ",
"                                                              ) ) ` #.g.*.$...[ [ ` ` _ )                                       ",
"                                                            ) ` *.j.g.#.` _ _ [ h.v.k.$.) )                                     ",
"                                                        ) ) $.v.g.$.` _ _ _ X.pXgXgXgXb.*.) )                                   ",
"                                                    ) ) ` g.v.*.} ' ( ( ' _ 6.DXb.k.k.j.aX#.)                                   ",
"                                                ) ) } =.v.j.$.} / ^ ^ / / / k.gXk.gXaXaXaXh.` )                                 ",
"                                              ) ` f.<X0Xv.%.] ~ ~ ~ ~ ^ ( ' X.iXn.VXKXVXc.g.} )                                 ",
"                                            ) ` d.[.<Xx.%.] ~ R R ~ ~ ^ / / ^ 5.iXgXgXgXb.#.&.` ) ) )                           ",
"                                            ) c.qXwXb.=.! T T T T R ~ ~ ~ / ] } %.&.=.+.+.+.+.+.+.} ) )                         ",
"                                          ) $.tXqXfX@.Q U Y U U T T T Q O.#.} ! F F C A C G G G G C +.)                         ",
"                                          ) n.xXqX3XF D Y D Y U Y E Q %.o.A = G :.:.:.-.= = Z A C Z H ` )                       ",
"                                        ) { s.5XqXL F S S S D D ! +. .Z O . . + ,.u.u.y.- O * B V C Q )                         ",
"                                        ) g.iXxXrXZ V V V S S F H G :.- @ q ,.0 0 Z.C.u.0 q * C F ] ) )                         ",
"                                        ) j.<Xv x 7 * * * B * P <.y.u.e.z.i.B.S.A.H.kXH.S.Z.q @.' ) )                           ",
"                                        ) g.n t # # P Z 2 o - ,.y.z.C.D.S.5X5XNXH.kXkXhXxXlXx c =.)                             ",
"                                        ) @.z # # # @ H F @ + r.l.D.H.kX5X]._.zXlXkXkXuX5XmXa.x f.` )                           ",
"                                      ) _ e.z 5XyXM # @ Q F X 6 C.G.H.kXwXs s qXVXdXkXdXB.jXkXlXjXh.)                           ",
"                                      ) Q z tXhXfXAXv # Z ! 2 $ z.G.H.kXyX].`.xXlXF.S.F.dXsXlXlXlXkX*.)                         ",
"                                      ) W 6XpXk.q.mXeX# 2 W 2 @ A.sXsXdXb v 7XlXiXl.i.S.H.sXkXkXlXkXv._                         ",
"                                      ) W 8XpXpXb.p.8X# 3 S % 4 aXdXdXs.@ @ 9 c w w p.l.A.H.sXkXkXkXx.)                         ",
"                                      ) / 9XgXDXlX0Xb - & B o 4 aXdXF.y.3 X @ @ @ X q u.i.C.D.H.H.G...) _ ) ) )                 ",
"                            ) ) ) ) ) ) ) @.fXBXtXM 4 & V & X e.F.F.A.i.,.5 @ X @ @ X q y.Z.C.Z.Z.&._ ) ) $.g.$.) )             ",
"                      ) ) ) g.v.g.#.} #.#.#.6.f.@.G Z * B % 4 l.b.C.D.A.C.C.u.5 X + . . + 3 4 w I { O.{ c.vXLXZX3X` )           ",
"                ) ) ) } *.pXDXFXFXVXb.{ ` ) ) ) ) ) ) ^ Y = <.l.l.l.Z.A.D.D.D.u.,.3.>.- - w >.z.$.iXVXvXcXcXMXFXJXpX#.)         ",
"              ) { h.gXVXKXJXJXKXDXSXLXv._ _ _ _ _ _ _ _ _ _ E G 3.z.u.Z.Z.A.D.D.D.D.C.C.C.D.H.&.p.9XMXKXMXrXtXMXDXKXgX) )       ",
"          ) ) g.gXKXJXJXJXJXJXJXJXFXDXLXh._ _ _ _ ( _ _ _ _ _ R Z q 3.u.i.l.Z.D.H.D.H.H.sXH.6._ d.n 9XMXcX8XeXrXnXFXKXv.)       ",
"        ) ` aXLXJXJXJXHXHXJXKXJXJXJXLXAXgX[ ( ^ R R ^ ^ ( _ _ _ R 7 t c r.p.i.i.b.D.H.H.G.&.) } s.N n m z N 6XrXnXZXLXVX{ )     ",
"        ) j.GXHXHXHXGXGXHXFXKXKXJXJXJXDXVX@.U D V D U T ~ ^ ( ) _ ~ k ~.g 6 :.r.y.z.x.h.` ) ' n.a.n <X8XN x m 8XeXnXLXLX*.)     ",
"        ) 3XSXSXSXSXSXGXGXGXGXJXJXKXKXNXcXq.! ! F B B S D T ~ ( ) _ L oX*Xk B 2 2 F { ] Q ! F a.M n [.eXM z z m rXnXDXLXg.)     ",
"        ) b.zXwXMXCXSXSXFXGXGXKXKXKXLXZXc.` _ ) Q K B * B S U ~ ( _ / (.=X$XL F 2 ! _ / B & * 7 8XrX7X8X7Xm z n 6X7XuXiX` )     ",
"        ) *.yX7XwXrXzXCXDXFXHXDXDXDXFXvX{ ) ) ) @.j D D U U R ~ ( _ ` l %X;X)._ K K ^ ' D B S & c tXtX<X9X[.M M 5Xa.f.` )       ",
"        ) _ c.6X8X6X6XtXMXNXNXNXBXNXZXpX) )   ) q.{.K T ~ ^ ~ ^ ( _ ` 8.%X:X{.w.o.k Y R T D S * & b rX7XM [.<Xs.f.X.) )         ",
"          ) %.0X8Xm M 9XtXnXnXuX8XtXNXv.)   ) ) 2X$XW.k L ! R ~ ~ Q 0./.[.M.M.}.$X{.4.D D V B & * = d.9Xa.i.%.{ _ )             ",
"            ) %.B.m b 5XuXcXcX8Xm yXfX#.)   ' O.4XoXQ.!.~./.(.(.).$X*XXXV.M.M.B.=X$Xm.J V A C F ! ] / ..%.` ) )                 ",
"              ) =.s.a.N.uXtXBXyXeXfXk.) ) ) ) n.>X!.Q.Q.Q. X X@XOX+X#X`.v m.J.5X%X$Xa.X.] / ' ) ) ) ) ) )                       ",
"                _ [ } f.s.9XN.6X9Xz.) ) ) ) } 4X*X~.E.Q.Q.`. X XXXOX+X XP.Y._.`.$X-Xt.) ) )                                     ",
"                  ) ) ) @.t.c 5 4 l 9.) ` ) q.>XoXE.E.Q.Q.Q.!. X.XXX@XOX@X`.@X+X+X-Xq.)                                         ",
"                  ) _ @.t.c 4 3 s P.T.9.` ` 2X-X~.R.E.E.Q.Q.Q.!. XoX.X.X@X@X@XXX|.:X=.)                                         ",
"                  ) +.r.w : 3 f K.K.P.^.).w.1X%XW.I.I.R.E.E.Q.Q.`..X.X.X.X.X.XoXoX:X| )                                         ",
"                ) _ f.>.8 0 k p p K.K.^.^.|.:X@XU.P.I.R.E.E.E.E.`.`.|..X.X@XXXoXoX2X) )                                         ",
"              ) X.z.,.8 < z U.p p K.K.P.P.^.$X~.Y.L.I.R.E.Q.Q. X.X@X@X%X%X%X%X*X-X0.` )                                         ",
"            ) ..Z.,.8 8 5 U.K.p p K.K.K.K.K.~./.L.L.L.R.E.`. X.XXX@X+X+X%X%X;X;X=X-X1XO.)                                       ",
"          ) ..z.>.8 < G h R.p i p p p K.K.K.K.P.Y.f d Y.U.E.Q.`. X.X.X@X+X+X%X;X=X=X=X1X} )                                     ",
"        ) [ 7.>.8 < < < t P.i i i p i p p K.p i f f d d L.I.U.W.E.`. X X@XOX+X+X=X=X=X-Xw.) )   ) ) ) ) )                       ",
"        ) 5.c < < < 8 G # i y y i i i i i i i e e r f s a d L.P.I.R.E.`.`..XXX+X=X-X=X=X:X` ) ) [ =.6.h.6.[ )                   ",
"        ) =.e.1 > > > < 3 r i r y y y y i y y e e e r s f a a d d L.I.I.E.Q. X@X#X*X*X=X-X2Xq.Q 1.3.2.7.z.b.*.)                 ",
"        ) { 1.- ; > , 1 : P 8.L 8.h g a i y e e e a s h j j k s a a a d P.R.Q..X@X#X*X*X#X*X{.j >.,.1.2.2.2.A.&._               ",
"          ) | I 5 1 , P  .( ) ) ) ' | L 8.j k j j K o.| ' ) Q L j g s s L.R.E.!.XX#X#X*X+X#Xt c e.r.1.p.l.3.3.n.)               ",
"            ) ` ] Q Q ' ) )         ) ) ) ) ' ' ) ) ( )     ) ) ) | 9.f L.Y.R.Q.|.#X#X#X@X`.4 q >.;.,.p.Z.3.:.z.` )             ",
"                _ ) _                                             ) ` l Y.L.R.W.!.|.XX#XXX_.w 0 < P :.r.3.1.:.C.#.)             ",
"                                                                    ) @.T.L.I.R.~.|.|.|.`.h 5 , < < G ;.;.;.z.x.)               ",
"                                                                    ) ' l Y.L.I.R.E.|.|.'.4 , 8 < < < < 8 Z.x.` _               ",
"                                                                      ) o.(.L.L.I.R.~.Q.t 8 > > > > > < 7.6._ )                 ",
"                                                                        ) I T.d L.^.E.g : 8 > > 1 , ;.7.X._ _                   ",
"                                                                        ) ) 0.Y.d I.f 4 > > 1 1 , :.5.[ )                       ",
"                                                                          ) o._.d t - 1 > 1 1 0 1.X._ )                         ",
"                                                                          ) ` 9.9 - - ; 1 8 ;.5.) )                             ",
"                                                                            ) ) H , - : , :.+._ )                               ",
"                                                                              ) _ E H P H / ) )                                 ",
"                                                                                  ) ) ' _ )                                     ",
"                                                                                                                                ",
"                                                                                                                                "
};
