/* XPM */
static char *result[] = {
/* columns rows colors chars-per-pixel */
"64 64 166 2 ",
"   c #010101",
".  c #0A0804",
"X  c #090705",
"o  c #140E0A",
"O  c #120C07",
"+  c #291C10",
"@  c #342313",
"#  c #460201",
"$  c #593B22",
"%  c #573C22",
"&  c #7E4514",
"*  c #7E4816",
"=  c #694728",
"-  c #684627",
";  c #7B532E",
":  c #704C2A",
">  c #7E3778",
",  c #6B4B4D",
"<  c #675545",
"1  c #656565",
"2  c gray42",
"3  c #862B19",
"4  c #A3340F",
"5  c #A73712",
"6  c #FF0000",
"7  c #F3070C",
"8  c #FF0B09",
"9  c #FF180E",
"0  c #FF170C",
"q  c #E50C1A",
"w  c #FE1818",
"e  c #FF2B18",
"r  c #FF2B16",
"t  c #D3122A",
"y  c #C91833",
"u  c #FE2524",
"i  c #FE2F26",
"p  c #FD312F",
"a  c #FE3131",
"s  c #804716",
"d  c #844B1B",
"f  c #8A4E1C",
"g  c #824817",
"h  c #8F531F",
"j  c #8C592D",
"k  c #8A562A",
"l  c #8C5D36",
"z  c #94633B",
"x  c #A26229",
"c  c #B16E32",
"v  c #BD763A",
"b  c #A46F3E",
"n  c #FF4D2B",
"m  c #C37B3E",
"M  c #D46136",
"N  c #FF6B3C",
"B  c #FF6035",
"V  c #EA6D3A",
"C  c #9A2C5F",
"Z  c #A42856",
"A  c #992D60",
"S  c #813977",
"D  c #996C46",
"F  c #986A44",
"G  c #926F5C",
"H  c #9E7552",
"J  c #BB7F46",
"K  c #B57844",
"L  c #A27A58",
"P  c #A97340",
"I  c #9A406A",
"U  c #884975",
"Y  c #B76C6E",
"T  c #FC4C4C",
"R  c #FB4644",
"E  c #E65742",
"W  c #FD5C4B",
"Q  c #FA5352",
"!  c #FD5856",
"~  c #FF7E46",
"^  c #FA6464",
"/  c #F96B6B",
"(  c #FA7575",
")  c #F9E73F",
"_  c #FFEE39",
"`  c #FFF137",
"'  c #BE8147",
"]  c #BA814C",
"[  c #9C9B79",
"{  c #AA8364",
"}  c #AF8E71",
"|  c #B08E71",
" . c #B5A767",
".. c #BDB564",
"X. c #C4854A",
"o. c #CE8C4E",
"O. c #D48947",
"+. c #DC914B",
"@. c #D58F50",
"#. c #DA9352",
"$. c #FF8047",
"%. c #E1954F",
"&. c #EA9C54",
"*. c #EA9F58",
"=. c #E39750",
"-. c #FF9B56",
";. c #FF9E58",
":. c #EEA25A",
">. c #FFA75D",
",. c #FEAD5E",
"<. c #FFB05D",
"1. c #D69B67",
"2. c #E29F6D",
"3. c #FB9779",
"4. c #FFAD60",
"5. c #FDA466",
"6. c #FFB062",
"7. c #FDB36E",
"8. c #FEB570",
"9. c #FCB97A",
"0. c #ECB078",
"q. c #CCC35B",
"w. c #D1C757",
"e. c #ECDD47",
"r. c #E3D54C",
"t. c #3C4FB6",
"y. c #3B4FB8",
"u. c #3E51B6",
"i. c #3B52B9",
"p. c #3751BB",
"a. c #5B479B",
"s. c #634493",
"d. c #766B9C",
"f. c #6B7599",
"g. c #66719D",
"h. c #464DAE",
"j. c #5249A4",
"k. c #4355B3",
"l. c #4659B9",
"z. c #4657B9",
"x. c #5968A5",
"c. c #9A7B8B",
"v. c #97778C",
"b. c #917A92",
"n. c #B48981",
"m. c #978EA7",
"M. c #AE9DAD",
"N. c #F78989",
"B. c #F88989",
"V. c #F88787",
"C. c #F99595",
"Z. c #F79595",
"A. c #C2A995",
"S. c #FCC088",
"D. c #FBC593",
"F. c #F9CEA5",
"G. c #F6CEAA",
"H. c #F7CCA5",
"J. c #FBD2AC",
"K. c #F7D0AC",
"L. c #8791CB",
"P. c #9EA6D3",
"I. c #B0B7E1",
"U. c #F3F4F5",
"Y. c #EFF3F4",
"T. c None",
/* pixels */
"T.T.T.T.T.T.T.T.T.T.T.T.T.T.T.T.T.T.T.T.T.T.T.T.T.T.T.T.T.T.T.T.T.T.T.T.T.T.T.T.T.T.T.T.T.T.T.T.T.T.T.T.T.T.T.T.T.T.T.T.T.T.T.T.",
"T.T.T.T.T.T.T.T.T.T.T.T.T.T.T.T.T.T.T.T.T.T.T.T.T.T.T.T.T.T.T.T.T.T.T.T.T.T.T.T.T.T.T.T.T.T.T.T.T.T.T.T.T.T.T.T.T.T.T.T.T.T.T.T.",
"T.T.T.T.T.T.T.T.T.T.T.T.T.T.T.T.T.T.T.T.T.N.V.N.N.N.N.N.V.N.N.N.N.N.N.N.N.N.V.T.T.T.T.T.T.T.T.T.T.T.T.T.T.T.T.T.T.T.T.T.T.T.T.T.",
"T.T.T.T.T.T.T.T.T.T.T.T.T.T.T.T.T.T.T.T.( 6 6 6 6 6 6 6 6 6 6 6 6 6 6 6 6 6 6 Q T.T.T.T.T.T.T.T.T.T.T.T.T.T.T.T.T.T.T.T.T.T.T.T.",
"T.T.T.T.T.T.T.T.T.T.T.T.T.T.T.T.T.T.T.T.( 6 6 6 6 6 6 6 6 6 6 6 6 6 6 6 6 6 6 ! T.T.T.T.T.T.T.T.T.T.T.T.T.T.T.T.T.T.T.T.T.T.T.T.",
"T.T.T.T.T.T.T.T.T.T.T.T.T.T.T.T.T.T.T.T.( 6 6 6 6 6 6 6 6 6 6 6 6 6 6 6 6 6 6 Q T.T.T.T.T.T.T.T.T.T.T.T.T.T.T.T.T.T.T.T.T.T.T.T.",
"T.T.T.T.T.T.T.T.T.T.T.T.T.T.T.T.T.^ ^ ^ p 6 6 6 6 6 6 6 6 6 6 6 6 6 6 6 6 6 6 u ^ ^ ^ ^ ^ ^ ^ ^ ^ ^ / T.T.T.T.T.T.T.T.T.T.T.T.T.",
"T.T.T.T.T.T.T.T.T.T.T.T.T.T.T.T.T.6 6 6 6 6 6 6 6 6 6 6 6 6 6 6 6 6 6 6 6 6 6 6 6 6 6 6 6 6 6 6 6 6 8 T.T.T.T.T.T.T.T.T.T.T.T.T.",
"T.T.T.T.T.T.T.T.T.T.T.T.T.T.T.T.T.6 6 6 6 6 6 6 6 6 6 6 6 6 6 6 6 6 6 6 6 6 6 6 6 6 6 6 6 6 6 6 6 6 8 T.T.T.T.T.T.T.T.T.T.T.T.T.",
"T.T.T.T.T.T.T.T.T.T.T.T.T.T.T.T.T.6 6 6 6 6 6 6 6 6 6 6 6 6 8 6 6 8 6 6 6 6 7 6 6 8 6 8 8 8 8 8 8 8 8 T.T.T.T.T.T.T.T.T.T.T.T.T.",
"T.T.T.T.T.T.T.T.T.T.T.T.T.T.T.T.T.4 4 4 4 4 4 4 4 4 4 5 V $.$.~ $.$.$.M # # # 3 ~ $.~ 3.T.T.T.T.T.T.T.T.T.T.T.T.T.T.T.T.T.T.T.T.",
"T.T.T.T.T.T.T.T.T.T.T.T.T.T.T.T.T.* * * * * * * * * * d =.6.6.6.6.6.6.X.X     % ,.6.,.G.T.T.T.T.T.T.T.T.T.T.T.T.T.T.T.T.T.T.T.T.",
"T.T.T.T.T.T.T.T.T.T.T.T.T.T.T.T.T.& & s s s s s * * * d #.4.,.4.6.4.4.X..     $ ,.4.,.H.T.T.T.T.T.T.T.T.T.T.T.T.T.T.T.T.T.T.T.T.",
"T.T.T.T.T.T.T.T.T.T.T.T.T.T.T.T.A.f f f d s s s d f f h =.4.4.4.4.4.4.X..     $ ,.4.,.H.T.T.T.T.T.T.T.T.T.T.T.T.T.T.T.T.T.T.T.T.",
"T.T.T.T.T.T.T.T.T.T.T.T.T.F z l K &.&.&.c & * s m &.:.=.>.4.4.4.4.4.6.X..     $ ,.4.4.7.9.9.9.9.9.9.9.T.T.T.T.T.T.T.T.T.T.T.T.T.",
"T.T.T.T.T.T.T.T.T.T.T.T.T.g s s c 4.4.6.v & g g O.6.6.<.,.4.4.4.,.4.6.X..     $ ,.4.4.,.,.,.,.,.,.4.6.T.T.T.T.T.T.T.T.T.T.T.T.T.",
"T.T.T.T.T.T.T.T.T.T.T.T.T.d g & c 4.4.4.v & * g O.6.6.<.4.4.4.4.4.4.6.' X     $ 4.6.4.4.4.4.,.4.4.4.4.T.T.T.T.T.T.T.T.T.T.T.T.T.",
"T.T.T.T.T.T.T.T.T.T.T.T.T.d * & c 4.4.4.v * * g m &.&.&.>.4.4.4.,.6.6.o.@ + + - @.@.@.&.4.4.4.4.4.4.4.T.T.T.T.T.T.T.T.T.T.T.T.T.",
"T.T.T.T.T.T.T.T.T.T.T.T.T.k & & c 4.4.4.v & s s d f f k =.6.4.4.4.4.4.>.&.:.:.b o o O l 4.4.4.4.4.4.4.7.7.7.9.T.T.T.T.T.T.T.T.T.",
"T.T.T.T.T.T.T.T.T.T.T.T.T.d & & c 4.4.4.v & s s g & & g +.6.4.4.4.4.4.4.4.4.6.b       ; 4.4.,.,.4.4.4.4.4.,.7.T.T.T.T.T.T.T.T.T.",
"T.T.T.T.T.T.T.T.T.T.T.T.T.g & & c 4.4.6.v & & & * * * * %.4.4.4.4.,.4.4.,.6.6.b       ; 6.6.6.6.4.6.6.4.,.,.7.T.T.T.T.T.T.T.T.T.",
"T.T.T.T.T.T.T.T.T.T.T.T.T.L H H ] +.+.+.v x x x x x x x &.4.4.4.4.4.4.:.X.J ' ;       $ ' J J ' J J ] 0.S.S.D.T.T.T.T.T.T.T.T.T.",
"T.T.T.T.T.T.T.T.T.T.T.T.T.T.T.T.T.g g * v 4.5.>.>.>.>.>.4.4.4.,.4.4.6.X.O   X           X     X X   o T.T.T.T.T.T.T.T.T.T.T.T.T.",
"T.T.T.T.T.T.T.T.T.T.T.T.T.T.T.T.A.* * * v 4.4.4.4.4.4.4.4.,.4.4.4.4.4.X.X                           X T.T.T.T.T.T.T.T.T.T.T.T.T.",
"T.T.T.T.T.T.T.T.T.T.T.T.T.T.T.T.T.& & & v 4.4.4.,.4.4.4.4.,.4.4.4.4.6.X.X                           X T.T.T.T.T.T.T.T.T.T.T.T.T.",
"T.T.T.T.T.T.T.T.T.T.T.T.T.T.T.T.T.| } } 1.,.4.4.4.4.4.4.4.4.4.4.,.4.4.#.: - = - = = - < 1 1 1 1 1 1 2 T.T.T.T.T.T.T.T.T.T.T.T.T.",
"T.T.T.T.T.T.T.T.T.T.T.T.T.T.T.T.T.T.T.T.J.,.4.4.4.4.,.4.4.4.4.4.4.4.4.,.4.4.4.4.6.4.,.F.Y.T.T.T.T.T.T.T.T.T.T.T.T.T.T.T.T.T.T.T.",
"T.T.T.T.T.T.T.T.T.T.T.T.T.T.T.T.T.T.T.T.H.,.4.4.4.4.4.4.4.4.,.4.4.4.4.4.4.4.4.4.4.4.,.F.U.T.T.T.T.T.T.T.T.T.T.T.T.T.T.T.T.T.T.T.",
"T.T.T.T.T.T.T.T.T.T.T.T.T.T.T.T.T.T.T.T.J.,.6.4.,.,.4.4.4.4.4.6.4.4.4.4.4.,.4.6.4.6.4.F.Y.T.T.T.T.T.T.T.T.T.T.T.T.T.T.T.T.T.T.T.",
"T.T.T.T.T.T.T.T.T.T.T.T.T.T.T.T.T./ / / W n n n Y b.b.v.E n n n n n n E v.b.b.Y n n n W / / / T.T.T.T.T.T.T.T.T.T.T.T.T.T.T.T.T.",
"T.T.T.T.T.T.T.T.T.T.T.T.T.T.T.T.T.6 6 6 6 6 6 6 > p.y.h.t 6 6 6 6 6 6 t h.i.p.> 6 6 6 6 6 6 6 C.T.T.T.T.T.T.T.T.T.T.T.T.T.T.T.T.",
"T.T.T.T.T.T.T.T.T.T.T.T.T.T.T.T.Z.6 6 6 6 6 6 6 S i.u.h.t 6 6 6 6 6 6 t h.u.i.S 6 6 6 6 6 6 6 Z.T.T.T.T.T.T.T.T.T.T.T.T.T.T.T.T.",
"T.T.T.T.T.T.T.T.T.T.T.T.T.T.T.T.C.6 6 6 6 6 6 6 S i.u.h.t 6 6 6 6 6 6 t h.u.i.S 6 6 6 6 6 6 6 C.T.T.T.T.T.T.T.T.T.T.T.T.T.T.T.T.",
"T.T.T.T.T.T.T.T.T.T.T.T.T.Q T T a 6 6 6 6 6 6 6 S i.u.h.t 6 6 6 6 6 6 t h.u.i.S 6 6 6 6 6 6 6 a T T Q T.T.T.T.T.T.T.T.T.T.T.T.T.",
"T.T.T.T.T.T.T.T.T.T.T.T.T.8 6 6 6 6 6 6 6 6 6 6 S i.u.h.t 6 6 6 6 6 6 t h.u.i.S 6 6 6 6 6 6 6 6 6 6 8 T.T.T.T.T.T.T.T.T.T.T.T.T.",
"T.T.T.T.T.T.T.T.T.T.T.T.T.8 6 6 6 6 6 6 6 6 6 6 S i.u.h.t 6 6 6 6 6 6 t h.u.i.S 6 6 6 6 6 6 6 6 6 6 8 T.T.T.T.T.T.T.T.T.T.T.T.T.",
"T.T.T.T.T.T.T.T.T.T.T.T.T.8 6 6 6 6 6 6 6 6 6 6 S i.u.h.y 7 7 7 7 7 7 y h.u.i.S 6 6 6 6 6 6 6 6 6 6 8 T.T.T.T.T.T.T.T.T.T.T.T.T.",
"T.T.T.T.T.T.T.T.T.R p a u 6 6 6 6 6 6 6 6 6 6 6 S i.u.k.a.s.s.s.s.s.s.a.u.u.i.S 6 6 6 6 6 6 6 6 6 6 6 u a a R T.T.T.T.T.T.T.T.T.",
"T.T.T.T.T.T.T.T.T.w 6 6 6 6 6 6 6 6 6 6 6 6 6 6 > i.u.u.i.u.i.u.u.u.i.i.u.u.i.S 6 6 6 6 6 6 6 6 6 6 6 6 6 6 w T.T.T.T.T.T.T.T.T.",
"T.T.T.T.T.T.T.T.T.w 6 6 6 6 6 6 6 6 6 6 6 6 6 6 S i.i.y.u.u.u.y.u.u.u.u.t.i.i.S 6 6 6 6 6 6 6 6 6 6 6 6 6 6 w T.T.T.T.T.T.T.T.T.",
"T.T.T.T.T.T.T.T.T.i 0 0 9 9 9 9 8 6 6 6 7 q q q U x.x.x.k.t.u.k.u.u.u.k.x.x.x.U q q q 7 6 6 6 8 0 9 9 0 0 0 i T.T.T.T.T.T.T.T.T.",
"T.T.T.T.T.T.T.T.T.5.-.-.-.;.-.;.B 6 6 6 Z j.j.j. .e.e.r.g.y.u.u.u.u.i.g.r.e.e. .j.j.j.Z 6 6 6 B ;.-.;.-.-.-.5.T.T.T.T.T.T.T.T.T.",
"T.T.T.T.T.T.T.T.T.8.4.4.4.4.4.6.N 6 6 6 A i.i.u...` ` ) f.y.y.u.u.u.i.f.) _ ` ..u.i.p.A 6 6 6 N 6.4.4.4.4.6.8.T.T.T.T.T.T.T.T.T.",
"T.T.T.T.T.T.T.T.T.7.,.4.4.4.4.6.N 6 6 6 C i.u.u...` ` ) f.y.y.u.u.u.y.f.) ` ` ..u.y.y.A 6 6 6 N 6.4.4.4.4.4.7.T.T.T.T.T.T.T.T.T.",
"T.T.T.T.T.T.T.T.T.8.,.4.,.4.4.4.~ e r r I i.u.u.[ w.w.q.g.y.u.u.u.u.y.x.q.w.w.[ k.y.i.A e e e ~ 6.4.4.4.4.,.8.T.T.T.T.T.T.T.T.T.",
"T.T.T.T.T.T.T.T.T.7.4.4.4.4.4.4.,.>.>.,.c.t.u.u.k.k.k.k.y.u.u.u.u.u.y.k.k.k.k.k.k.y.i.c.,.6.,.,.4.4.4.4.4.,.8.T.T.T.T.T.T.T.T.T.",
"T.T.T.T.T.T.T.T.T.8.,.4.4.4.4.4.4.4.4.4.c.t.u.u.y.y.u.u.t.u.u.u.u.u.u.y.k.y.y.u.y.u.t.c.,.4.4.4.4.4.4.4.4.,.8.T.T.T.T.T.T.T.T.T.",
"T.T.T.T.T.T.T.T.T.7.,.4.4.4.4.4.,.,.<.<.c.u.u.u.k.u.u.u.u.u.u.u.u.u.u.k.y.k.k.y.u.u.t.c.<.<.<.,.4.4.4.4.4.4.7.T.T.T.T.T.T.T.T.T.",
"T.T.T.T.T.T.T.T.T.8.,.4.4.4.4.,.2.n.n.n.d.y.y.y.k.k.y.y.u.u.u.u.u.u.u.u.u.u.u.u.y.y.y.d.n.n.n.2.,.4.4.4.4.,.8.T.T.T.T.T.T.T.T.T.",
"T.T.T.T.T.T.T.T.T.7.,.4.4.4.4.,.n.y.y.y.y.k.k.y.y.y.y.k.y.k.u.u.u.u.u.u.u.u.u.u.k.k.y.k.k.y.y.n.,.4.,.4.4.4.7.T.T.T.T.T.T.T.T.T.",
"T.T.T.T.T.T.T.T.T.8.,.,.4.,.4.,.n.z.u.u.y.k.y.y.y.y.y.k.u.u.u.u.u.u.u.u.u.u.u.u.y.y.y.y.y.y.y.n.,.4.4.4.,.,.8.T.T.T.T.T.T.T.T.T.",
"T.T.T.T.T.T.T.T.T.7.,.,.,.,.,.,.| u.u.u.k.y.y.k.k.k.y.y.u.t.y.y.t.y.y.u.u.u.u.u.y.k.k.y.y.k.z.| ,.,.,.,.,.,.7.T.T.T.T.T.T.T.T.T.",
"T.T.T.T.T.T.T.T.T.T.T.T.K.J.K.J.M.u.u.u.u.u.u.u.y.y.y.k.L.T.T.T.P.P.P.L.z.u.u.u.y.y.k.y.k.y.y.M.J.G.J.K.J.G.T.T.T.T.T.T.T.T.T.T.",
"T.T.T.T.T.T.T.T.T.T.T.T.T.T.T.T.I.u.u.u.u.u.u.u.y.k.k.l.T.T.T.T.T.T.T.T.z.u.u.u.k.y.k.y.t.y.k.T.T.T.T.T.T.T.T.T.T.T.T.T.T.T.T.T.",
"T.T.T.T.T.T.T.T.T.T.T.T.T.T.T.T.T.u.u.u.u.u.u.u.k.y.y.z.T.T.T.T.T.T.T.T.z.y.t.k.k.y.y.y.y.k.k.T.T.T.T.T.T.T.T.T.T.T.T.T.T.T.T.T.",
"T.T.T.T.T.T.T.T.T.T.T.T.T.T.T.T.T.u.u.u.u.k.u.h.y.k.y.z.T.T.T.T.T.T.T.T.T.y.k.y.t.k.y.k.y.k.y.T.T.T.T.T.T.T.T.T.T.T.T.T.T.T.T.T.",
"T.T.T.T.T.T.T.T.T.T.T.T.T.{ { { G , , , , , , , m.T.T.T.T.T.T.T.T.T.T.T.T.T.T.m., , , , , , , G { { { T.T.T.T.T.T.T.T.T.T.T.T.T.",
"T.T.T.T.T.T.T.T.T.T.T.T.T.g & & & s s s s s s s T.T.T.T.T.T.T.T.T.T.T.T.T.T.T.T.s s s s s s s s & & d T.T.T.T.T.T.T.T.T.T.T.T.T.",
"T.T.T.T.T.T.T.T.T.T.T.T.T.d g g & g * g s s s s T.T.T.T.T.T.T.T.T.T.T.T.T.T.T.T.g & g & s s s s & s d T.T.T.T.T.T.T.T.T.T.T.T.T.",
"T.T.T.T.T.T.T.T.T.T.T.T.T.d s * g & g & s s s s T.T.T.T.T.T.T.T.T.T.T.T.T.T.T.T.g s * g s s s s s s d T.T.T.T.T.T.T.T.T.T.T.T.T.",
"T.T.T.T.T.T.T.T.T.L D D z g * g s s s g s s s s T.T.T.T.T.T.T.T.T.T.T.T.T.T.T.T.T.s s g g g g & s g g z D D L T.T.T.T.T.T.T.T.T.",
"T.T.T.T.T.T.T.T.T.k & & & g & g s s g & s s s g T.T.T.T.T.T.T.T.T.T.T.T.T.T.T.T.T.g s & & & s g & g * & & & k T.T.T.T.T.T.T.T.T.",
"T.T.T.T.T.T.T.T.T.j & g & s g * s s s s s s s s T.T.T.T.T.T.T.T.T.T.T.T.T.T.T.T.T.s s * g * g * g s g & s & j T.T.T.T.T.T.T.T.T.",
"T.T.T.T.T.T.T.T.T.j & g g s s s g s s s s s s d T.T.T.T.T.T.T.T.T.T.T.T.T.T.T.T.T.s s g & g & g & s * g g & j T.T.T.T.T.T.T.T.T."
};
