/* XPM */
static char *_a531aa924ed48f48bb0b88f85769854DfhrwiFXq3skCkqF[] = {
/* columns rows colors chars-per-pixel */
"64 64 87 1 ",
"  c #F05A29",
". c #F15A29",
"X c #E3572A",
"o c #4B291F",
"O c #4D3414",
"+ c #EC8303",
"@ c #FA8800",
"# c #F98800",
"$ c #F98900",
"% c #F98602",
"& c #F6780E",
"* c #F26420",
"= c #F2651F",
"- c #F25B29",
"; c #F45B2A",
": c #D55025",
"> c #1B0A05",
", c #1C1000",
"< c #DD7901",
"1 c #FD8A00",
"2 c #FA8702",
"3 c #F87B0C",
"4 c #F5691D",
"5 c #F25D27",
"6 c #F25A2A",
"7 c #E05527",
"8 c #D34F24",
"9 c #D55024",
"0 c #BA4620",
"q c #180904",
"w c #190E00",
"e c #C16900",
"r c #DB7007",
"t c #D65D18",
"y c #D45122",
"u c #D34F25",
"i c #E15527",
"p c #38170E",
"a c #1A0A05",
"s c #170804",
"d c #010001",
"f c #010100",
"g c #180D00",
"h c #1B0C03",
"j c #1B0905",
"k c #1D0B05",
"l c #39180D",
"z c #3B2304",
"x c #1C0F00",
"c c #1E1000",
"v c #1C0E01",
"b c #170904",
"n c #010000",
"m c #180E00",
"M c #E98001",
"N c #DB7800",
"B c #DB7602",
"V c #D86A0C",
"C c #D6581D",
"Z c #DD7900",
"A c #D5581D",
"S c #FA8900",
"D c #FB8900",
"F c #FB8A00",
"G c #FB8702",
"H c #F67A0C",
"J c #F3681D",
"K c #F05C27",
"L c #F0592A",
"P c #F87B0D",
"I c #F25C28",
"U c #D96F07",
"Y c #3A2204",
"T c #1B0F00",
"R c #1B0B03",
"E c #39170E",
"W c #3B2204",
"Q c #F6790D",
"! c #F3681C",
"~ c #F98701",
"^ c #F05B28",
"/ c #F3691C",
"( c #F15A2A",
") c #F77D0A",
"_ c #F36A1B",
"` c #F77E08",
"' c white",
/* pixels */
"     .XoO+@#$%&*     .XoO+@#$%&*     .XoO+@#$%&*     .XoO+@#$%&=",
".----;:>,<123456-----;:>,<123456-----;:>,<123456-----;:>,<12345.",
"7888890qwertyu888888890qwertyu888888890qwertyu888888890qwertyu8i",
"pa>>>>sdfghj>>>kk>>>>>sdfghj>>>kk>>>>>sdfghj>>>kk>>>>>sdfghj>>>l",
"zx,,,,,ccxx,,vbnfm,,,,,ccxx,,vbnfm,,,,,ccxx,,vbnfm,,,,,ccxx,,v>l",
"MNNNNNNNNNNBVC0qweZNNNNNNNNBVC0qweZNNNNNNNNBVC0qweZNNNNNNNNBVA8i",
"SDDDDDDDFG345;9>,Z1DDDDDFG345;9>,Z1DDDDDFG345;9>,Z1DDDDDFG3456-.",
"######$%HJKL -8>,ND###$%HJKL -8>,ND###$%HJKL -8>,ND###$%HJKL    ",
"####$%HJKL   -8>,ND#$%HJKL   -8>,ND#$%HJKL   -8>,ND#$%HJKL      ",
"SDDGP4I6-----;9>,Z1GP4I6-----;9>,Z1GP4I6-----;9>,Z1GP4I6-------.",
"MNUtyu888888890qwertyu888888890qwertyu888888890qwertyu888888888i",
"YTRj>>>kk>>>>>sdfghj>>>kk>>>>>sdfghj>>>kk>>>>>sdfghj>>>kk>>>>>aE",
"Wxx,,vbnfm,,,,,ccxx,,vbnfm,,,,,ccxx,,vbnfm,,,,,ccxx,,vbnfm,,,,xz",
"MNNBVC0qweZNNNNNNNNBVC0qweZNNNNNNNNBVC0qweZNNNNNNNNBVC0qweZNNNNM",
"SG345;9>,Z1DDDDDFG345;9>,Z1DDDDDFG345;9>,Z1DDDDDFG345;9>,Z1DDDDS",
"Q!KL -8>,ND###$%HJKL -8>,ND###$%HJKL -8>,ND###$%HJKL -8>,ND###$~",
"^L   -8>,ND#$%HJKL   -8>,ND#$%HJKL   -8>,ND#$%HJKL   -8>,ND#$%H/",
".----;9>,Z1GP4I6-----;9>,Z1GP4I6-----;9>,Z1GP4I6-----;9>,Z1GP4I(",
"7888890qwertyu888888890qwertyu888888890qwertyu888888890qwertyu8i",
"pa>>>>sdfghj>>>kk>>>>>sdfghj>>>kk>>>>>sdfghj>>>kk>>>>>sdfghj>>>l",
"zx,,,,,ccxx,,vbnfm,,,,,ccxx,,vbnfm,,,,,ccxx,,vbnfm,,,,,ccxx,,v>l",
"MNNNNNNNNNNBVC0qweZNNNNNNNNBVC0qweZNNNNNNNNBVC0qweZNNNNNNNNBVA8i",
"SDDDDDDDFG345;9>,Z1DDDDDFG345;9>,Z1DDDDDFG345;9>,Z1DDDDDFG3456-.",
"######$%HJKL -8>,ND###$%HJKL -8>,ND###$%HJKL -8>,ND###$%HJKL    ",
"####$%HJKL   -8>,ND#$%HJKL   -8>,ND#$%HJKL   -8>,ND#$%HJKL      ",
"SDDGP4I6-----;9>,Z1GP4I6-----;9>,Z1GP4I6-----;9>,Z1GP4I6-------.",
"MNUtyu888888890qwertyu888888890qwertyu888888890qwertyu888888888i",
"YTRj>>>kk>>>>>sdfghj>>>kk>>>>>sdfghj>>>kk>>>>>sdfghj>>>kk>>>>>aE",
"Wxx,,vbnfm,,,,,ccxx,,vbnfm,,,,,ccxx,,vbnfm,,,,,ccxx,,vbnfm,,,,xz",
"MNNBVC0qweZNNNNNNNNBVC0qweZNNNNNNNNBVC0qweZNNNNNNNNBVC0qweZNNNNM",
"SG345;9>,Z1DDDDDFG345;9>,Z1DDDDDFG345;9>,Z1DDDDDFG345;9>,Z1DDDDS",
"Q!KL -8>,ND###$%HJKL -8>,ND###$%HJKL -8>,ND###$%HJKL -8>,ND###$~",
"^L   -8>,ND#$%HJKL   -8>,ND#$%HJKL   -8>,ND#$%HJKL   -8>,ND#$%H/",
".----;9>,Z1GP4I6-----;9>,Z1GP4I6-----;9>,Z1GP4I6-----;9>,Z1GP4I(",
"7888890qwertyu888888890qwertyu888888890qwertyu888888890qwertyu8i",
"pa>>>>sdfghj>>>kk>>>>>sdfghj>>>kk>>>>>sdfghj>>>kk>>>>>sdfghj>>>l",
"zx,,,,,ccxx,,vbnfm,,,,,ccxx,,vbnfm,,,,,ccxx,,vbnfm,,,,,ccxx,,v>l",
"MNNNNNNNNNNBVC0qweZNNNNNNNNBVC0qweZNNNNNNNNBVC0qweZNNNNNNNNBVA8i",
"SDDDDDDDFG345;9>,Z1DDDDDFG345;9>,Z1DDDDDFG345;9>,Z1DDDDDFG3456-.",
"######$%HJKL -8>,ND###$%HJKL -8>,ND###$%HJKL -8>,ND###$%HJKL    ",
"####$%HJKL   -8>,ND#$%HJKL   -8>,ND#$%HJKL   -8>,ND#$%HJKL      ",
"SDDGP4I6-----;9>,Z1GP4I6-----;9>,Z1GP4I6-----;9>,Z1GP4I6-------.",
"MNUtyu888888890qwertyu888888890qwertyu888888890qwertyu888888888i",
"YTRj>>>kk>>>>>sdfghj>>>kk>>>>>sdfghj>>>kk>>>>>sdfghj>>>kk>>>>>aE",
"Wxx,,vbnfm,,,,,ccxx,,vbnfm,,,,,ccxx,,vbnfm,,,,,ccxx,,vbnfm,,,,xz",
"MNNBVC0qweZNNNNNNNNBVC0qweZNNNNNNNNBVC0qweZNNNNNNNNBVC0qweZNNNNM",
"SG345;9>,Z1DDDDDFG345;9>,Z1DDDDDFG345;9>,Z1DDDDDFG345;9>,Z1DDDDS",
"Q!KL -8>,ND###$%HJKL -8>,ND###$%HJKL -8>,ND###$%HJKL -8>,ND###$~",
"^L   -8>,ND#$%HJKL   -8>,ND#$%HJKL   -8>,ND#$%HJKL   -8>,ND#$%H/",
".----;9>,Z1GP4I6-----;9>,Z1GP4I6-----;9>,Z1GP4I6-----;9>,Z1GP4I(",
"7888890qwertyu888888890qwertyu888888890qwertyu888888890qwertyu8i",
"pa>>>>sdfghj>>>kk>>>>>sdfghj>>>kk>>>>>sdfghj>>>kk>>>>>sdfghj>>>l",
"zx,,,,,ccxx,,vbnfm,,,,,ccxx,,vbnfm,,,,,ccxx,,vbnfm,,,,,ccxx,,v>l",
"MNNNNNNNNNNBVC0qweZNNNNNNNNBVC0qweZNNNNNNNNBVC0qweZNNNNNNNNBVA8i",
"SDDDDDDDFG345;9>,Z1DDDDDFG345;9>,Z1DDDDDFG345;9>,Z1DDDDDFG3456-.",
"######$%HJKL -8>,ND###$%HJKL -8>,ND###$%HJKL -8>,ND###$%HJKL    ",
"####$%HJKL   -8>,ND#$%HJKL   -8>,ND#$%HJKL   -8>,ND#$%HJKL      ",
"SDDGP4I6-----;9>,Z1GP4I6-----;9>,Z1GP4I6-----;9>,Z1GP4I6-------.",
"MNUtyu888888890qwertyu888888890qwertyu888888890qwertyu888888888i",
"YTRj>>>kk>>>>>sdfghj>>>kk>>>>>sdfghj>>>kk>>>>>sdfghj>>>kk>>>>>aE",
"Wxx,,vbnfm,,,,,ccxx,,vbnfm,,,,,ccxx,,vbnfm,,,,,ccxx,,vbnfm,,,,xz",
"MNNBVC0qweZNNNNNNNNBVC0qweZNNNNNNNNBVC0qweZNNNNNNNNBVC0qweZNNNNM",
"S2345;:>,Z1DDDDDD2345;:>,Z1DDDDDD2345;:>,Z1DDDDDD2345;:>,Z1DDDDS",
")_KL .iEzMS#####`_KL .iEzMS#####`_KL .iEzMS#####`_KL .iEzMS#####"
};
